<svg xmlns="http://www.w3.org/2000/svg" viewBox="0 0 229 420" width="229" height="420" font-family="system-ui,sans-serif"><defs><marker id="arr" viewBox="0 0 10 10" refX="9" refY="5" markerWidth="7" markerHeight="7" orient="auto-start-reverse"><path d="M0,0 L10,5 L0,10 z" fill="#555"/></marker><pattern id="hatch" width="6" height="6" patternUnits="userSpaceOnUse" patternTransform="rotate(45)"><line x1="0" y1="0" x2="0" y2="6" stroke="#bbb" stroke-width="2"/></pattern></defs><g transform="translate(18,6)"><text x="0" y="14" font-size="13" font-weight="600">Drops per window</text><rect x="0" y="22" width="71.2" height="26" fill="#eeede6" stroke="#a8a29e" data-cell="drops:0:1" style="cursor:pointer"/><text x="35.6" y="39.3" font-size="12" text-anchor="middle" font-weight="600">Window</text><rect x="71.2" y="22" width="42.4" height="26" fill="#eeede6" stroke="#a8a29e" data-cell="drops:0:2" style="cursor:pointer"/><text x="92.4" y="39.3" font-size="12" text-anchor="middle" font-weight="600">Q7</text><rect x="113.6" y="22" width="42.4" height="26" fill="#eeede6" stroke="#a8a29e" data-cell="drops:0:3" style="cursor:pointer"/><text x="134.79999999999998" y="39.3" font-size="12" text-anchor="middle" font-weight="600">Q3</text><rect x="156" y="22" width="42.4" height="26" fill="#eeede6" stroke="#a8a29e" data-cell="drops:0:4" style="cursor:pointer"/><text x="177.2" y="39.3" font-size="12" text-anchor="middle" font-weight="600">Q0</text><rect x="0" y="48" width="71.2" height="26" fill="#fff" stroke="#a8a29e" data-cell="drops:1:1" style="cursor:pointer"/><text x="7" y="65.3" font-size="12" text-anchor="start">00:00</text><rect x="71.2" y="48" width="42.4" height="26" fill="#fff" stroke="#a8a29e" data-cell="drops:1:2" style="cursor:pointer"/><text x="106.6" y="65.3" font-size="12" text-anchor="end">4</text><rect x="113.6" y="48" width="42.4" height="26" fill="#fff" stroke="#a8a29e" data-cell="drops:1:3" style="cursor:pointer"/><text x="149" y="65.3" font-size="12" text-anchor="end">31</text><rect x="156" y="48" width="42.4" height="26" fill="#fee2e2" stroke="#b91c1c" data-cell="drops:1:4" style="cursor:pointer"/><text x="191.4" y="65.3" font-size="12" text-anchor="end">64</text><rect x="0" y="74" width="71.2" height="26" fill="#fff" stroke="#a8a29e" data-cell="drops:2:1" style="cursor:pointer"/><text x="7" y="91.3" font-size="12" text-anchor="start">00:05</text><rect x="71.2" y="74" width="42.4" height="26" fill="#fff" stroke="#a8a29e" data-cell="drops:2:2" style="cursor:pointer"/><text x="106.6" y="91.3" font-size="12" text-anchor="end">1</text><rect x="113.6" y="74" width="42.4" height="26" fill="#fff" stroke="#a8a29e" data-cell="drops:2:3" style="cursor:pointer"/><text x="149" y="91.3" font-size="12" text-anchor="end">22</text><rect x="156" y="74" width="42.4" height="26" fill="#fff" stroke="#b45309" data-cell="drops:2:4" style="cursor:pointer"/><text x="191.4" y="91.3" font-size="12" text-anchor="end">51</text><text x="0" y="144" font-size="13" font-weight="600">Drops per window — bar3d</text><polygon points="48,284 8,304 68,334 108,314" fill="#f6f5ef" stroke="#d6d4cc"/><polygon points="33.6,285.875 48,293.075 48,301.2 33.6,294" fill="#2a5eb1"/><polygon points="48,293.075 62.4,285.875 62.4,294 48,301.2" fill="#204887"/><polygon points="48,278.675 33.6,285.875 48,293.075 62.4,285.875" fill="#3b82f6"/><polygon points="53.6,241.03125 68,248.23125 68,311.2 53.6,304" fill="#188e44"/><polygon points="68,248.23125 82.39999999999999,241.03125 82.39999999999999,304 68,311.2" fill="#136c34"/><polygon points="68,233.83125 53.6,241.03125 68,248.23125 82.39999999999999,241.03125" fill="#22c55e"/><polygon points="13.600000000000009,301.96875 28.000000000000004,309.16875 28.000000000000004,311.2 13.600000000000009,304" fill="#2a5eb1"/><polygon points="28.000000000000004,309.16875 42.4,301.96875 42.4,304 28.000000000000004,311.2" fill="#204887"/><polygon points="28,294.76875 13.600000000000009,301.96875 28.000000000000004,309.16875 42.4,301.96875" fill="#3b82f6"/><polygon points="73.60000000000001,184 88,191.2 88,321.2 73.60000000000001,314" fill="#b07208"/><polygon points="88,191.2 102.39999999999999,184 102.39999999999999,314 88,321.2" fill="#875706"/><polygon points="88,176.8 73.60000000000001,184 88,191.2 102.39999999999999,184" fill="#f59e0b"/><polygon points="33.60000000000001,269.3125 48,276.5125 48,321.2 33.60000000000001,314" fill="#188e44"/><polygon points="48,276.5125 62.39999999999999,269.3125 62.39999999999999,314 48,321.2" fill="#136c34"/><polygon points="48,262.1125 33.60000000000001,269.3125 48,276.5125 62.39999999999999,269.3125" fill="#22c55e"/><polygon points="53.60000000000001,220.40625 68,227.60625 68,331.2 53.60000000000001,324" fill="#b07208"/><polygon points="68,227.60625 82.39999999999999,220.40625 82.39999999999999,324 68,331.2" fill="#875706"/><polygon points="68,213.20625 53.60000000000001,220.40625 68,227.60625 82.39999999999999,220.40625" fill="#f59e0b"/><text x="31" y="297.5" font-size="10" text-anchor="end" fill="#6f6e69">00:00</text><text x="11" y="307.5" font-size="10" text-anchor="end" fill="#6f6e69">00:05</text><text x="19" y="320.5" font-size="10" text-anchor="start" fill="#6f6e69">Q7</text><text x="39" y="330.5" font-size="10" text-anchor="start" fill="#6f6e69">Q3</text><text x="59" y="340.5" font-size="10" text-anchor="start" fill="#6f6e69">Q0</text><line x1="122" y1="314" x2="122" y2="184" stroke="#8a8880"/><line x1="119" y1="314" x2="125" y2="314" stroke="#8a8880"/><text x="129" y="317.5" font-size="9.5" text-anchor="start" fill="#6f6e69">0</text><line x1="119" y1="249" x2="125" y2="249" stroke="#8a8880"/><text x="129" y="252.5" font-size="9.5" text-anchor="start" fill="#6f6e69">32</text><line x1="119" y1="184" x2="125" y2="184" stroke="#8a8880"/><text x="129" y="187.5" font-size="9.5" text-anchor="start" fill="#6f6e69">64</text><rect x="0" y="393" width="16" height="11" fill="#fee2e2" stroke="#b91c1c"/><text x="21" y="402.5" font-size="11" fill="#1d1d1b">Above the drop watermark</text></g><metadata id="figdown-source" data-sha256="62e6416ec3d95cb690f2980ad25b2f8da640c7d349475a5349f6e4f4f22d436f" data-engine-version="0.1.0"><![CDATA[
# FigDown — figures as text. Spec: https://github.com/FigDown/figdown

# Reference figure for genre `table` — EXPERIMENTAL constructs ONLY (`CONSTRUCT-STATUS-TIERS`).
# `table` owns no experimental construct: `table`, the `|` row token, `cell`
# and `width` are all normative, and so are the cell addresses, the
# `highlight` flag, the span markers, the alignment colons and the column
# widths. What is left is one keyword the genre HOSTS without owning
# (`chart`, with its `type=`) and the two cross-namespace colour keys.
# Every construct here is OUTSIDE the v0.1 conformance surface and OUTSIDE
# the compatibility promise: the engine accepts it and renders it unchanged,
# but it may change or be withdrawn in a later 0.x WITHOUT a migration entry.
# A portable v0.1 table document uses none of it.
# The normative surface is table.fd — kept separate so a reader can see
# exactly where the promise ends.
figdown 0.1 table
title "Egress drops by sampling window (experimental constructs)"

# `stroke=` (cell border colour) was EXPERIMENTAL until this release and is now
# NORMATIVE (`STROKE-KEY-STATUS`); `color=` (text colour) was RETIRED in the same release
# (`COLOUR-KEY-STATUS`), so the only experimental construct left in this file is `chart`.
class hot "Above the drop watermark" fill=#fee2e2 stroke=#b91c1c

# On the BLOCK `stroke=` is the default border for every cell of the grid.
table drops "Drops per window" stroke=#a8a29e
| Window | Q7 | Q3 | Q0 |
|:-------|---:|---:|---:|
| 00:00  |  4 | 31 | 64 |
| 00:05  |  1 | 22 | 51 |
# On a CELL `stroke=` colours that one cell's border, overriding the block
# default. Written bare like this the mark carries no stated meaning;
# `class=hot` on the line above is the form to prefer (`CATEGORICAL-MEANING-MAPPING`).
cell (1,4) class=hot
cell (2,4) stroke=#b45309

# EXPERIMENTAL — `chart` reads the table AS the data: rows → X, columns → Y,
# numeric cells → Z. It is the one keyword a pure `table` section may host
# without owning it, and the only construct here that adds a second drawing
# to the page rather than recolouring the first.
# `type=bar3d` is the whole option surface — `bar3d` is its only value, so
# `chart drops` alone means the same thing. It was spelled `plot` with
# `kind=bars3d` until this release, and `level=` was DELETED.
chart drops type=bar3d

]]></metadata></svg>