<svg xmlns="http://www.w3.org/2000/svg" viewBox="0 0 764 134" width="764" height="134" font-family="system-ui,sans-serif"><defs><marker id="arr" viewBox="0 0 10 10" refX="9" refY="5" markerWidth="7" markerHeight="7" orient="auto-start-reverse"><path d="M0,0 L10,5 L0,10 z" fill="#555"/></marker><pattern id="hatch" width="6" height="6" patternUnits="userSpaceOnUse" patternTransform="rotate(45)"><line x1="0" y1="0" x2="0" y2="6" stroke="#bbb" stroke-width="2"/></pattern></defs><g transform="translate(18,6)"><text x="0" y="16" font-size="15" font-weight="600" font-family="var(--sans)">Control Register Pattern</text><text x="0" y="44" font-size="13" font-weight="600">Control Register</text><text x="11.5" y="59" font-size="8.5" text-anchor="middle" fill="#6f6e69">31</text><text x="34.5" y="59" font-size="8.5" text-anchor="middle" fill="#6f6e69">30</text><text x="57.5" y="59" font-size="8.5" text-anchor="middle" fill="#6f6e69">29</text><text x="80.5" y="59" font-size="8.5" text-anchor="middle" fill="#6f6e69">28</text><text x="103.5" y="59" font-size="8.5" text-anchor="middle" fill="#6f6e69">27</text><text x="126.5" y="59" font-size="8.5" text-anchor="middle" fill="#6f6e69">26</text><text x="149.5" y="59" font-size="8.5" text-anchor="middle" fill="#6f6e69">25</text><text x="172.5" y="59" font-size="8.5" text-anchor="middle" fill="#6f6e69">24</text><text x="195.5" y="59" font-size="8.5" text-anchor="middle" fill="#6f6e69">23</text><text x="218.5" y="59" font-size="8.5" text-anchor="middle" fill="#6f6e69">22</text><text x="241.5" y="59" font-size="8.5" text-anchor="middle" fill="#6f6e69">21</text><text x="264.5" y="59" font-size="8.5" text-anchor="middle" fill="#6f6e69">20</text><text x="287.5" y="59" font-size="8.5" text-anchor="middle" fill="#6f6e69">19</text><text x="310.5" y="59" font-size="8.5" text-anchor="middle" fill="#6f6e69">18</text><text x="333.5" y="59" font-size="8.5" text-anchor="middle" fill="#6f6e69">17</text><text x="356.5" y="59" font-size="8.5" text-anchor="middle" fill="#6f6e69">16</text><text x="379.5" y="59" font-size="8.5" text-anchor="middle" fill="#6f6e69">15</text><text x="402.5" y="59" font-size="8.5" text-anchor="middle" fill="#6f6e69">14</text><text x="425.5" y="59" font-size="8.5" text-anchor="middle" fill="#6f6e69">13</text><text x="448.5" y="59" font-size="8.5" text-anchor="middle" fill="#6f6e69">12</text><text x="471.5" y="59" font-size="8.5" text-anchor="middle" fill="#6f6e69">11</text><text x="494.5" y="59" font-size="8.5" text-anchor="middle" fill="#6f6e69">10</text><text x="517.5" y="59" font-size="8.5" text-anchor="middle" fill="#6f6e69">9</text><text x="540.5" y="59" font-size="8.5" text-anchor="middle" fill="#6f6e69">8</text><text x="563.5" y="59" font-size="8.5" text-anchor="middle" fill="#6f6e69">7</text><text x="586.5" y="59" font-size="8.5" text-anchor="middle" fill="#6f6e69">6</text><text x="609.5" y="59" font-size="8.5" text-anchor="middle" fill="#6f6e69">5</text><text x="632.5" y="59" font-size="8.5" text-anchor="middle" fill="#6f6e69">4</text><text x="655.5" y="59" font-size="8.5" text-anchor="middle" fill="#6f6e69">3</text><text x="678.5" y="59" font-size="8.5" text-anchor="middle" fill="#6f6e69">2</text><text x="701.5" y="59" font-size="8.5" text-anchor="middle" fill="#6f6e69">1</text><text x="724.5" y="59" font-size="8.5" text-anchor="middle" fill="#6f6e69">0</text><rect x="0" y="64" width="92" height="30" fill="#fff" stroke="#555"/><text x="46" y="82.85" font-size="11" text-anchor="middle">Reserved</text><rect x="92" y="64" width="92" height="30" fill="#fff" stroke="#555"/><text x="138" y="82.85" font-size="11" text-anchor="middle">TYPE</text><rect x="184" y="64" width="184" height="30" fill="#fff" stroke="#555"/><text x="276" y="82.85" font-size="11" text-anchor="middle">FIELD_A</text><rect x="368" y="64" width="138" height="30" fill="#fff" stroke="#555"/><text x="437" y="82.85" font-size="11" text-anchor="middle">MODE</text><rect x="506" y="64" width="138" height="30" fill="#fff" stroke="#555"/><text x="575" y="82.85" font-size="11" text-anchor="middle">Reserved</text><rect x="644" y="64" width="23" height="30" fill="#fff" stroke="#555"/><text x="655.5" y="82.85" font-size="11" text-anchor="middle">FC</text><rect x="667" y="64" width="23" height="30" fill="#fff" stroke="#555"/><text x="678.5" y="82.85" font-size="11" text-anchor="middle">FB</text><rect x="690" y="64" width="23" height="30" fill="#fff" stroke="#555"/><text x="701.5" y="82.85" font-size="11" text-anchor="middle">FA</text><rect x="713" y="64" width="23" height="30" fill="#fff" stroke="#555"/><text x="724.5" y="82.85" font-size="11" text-anchor="middle">EN</text></g><metadata id="figdown-source" data-sha256="5aa215c7cdc712ee9ff89c0a0b3677678506bf32b89cc4bd3fcbd65bab4c1ce1"><![CDATA[
figdown 0.1 bitfield
# Hardware control register — single 32-bit word, lsb0 numbering (ruler 31..0)
title Control Register Pattern

bitfield ctrl_reg "Control Register" unit=32
# Row 0: flag cluster at high bits + wide mode field + small type nibble + reserved low bits
field Reserved 4
field TYPE 4
field FIELD_A 8
field MODE 6
field Reserved 6
field FC:1, FB:1, FA:1, EN:1  # FC=FLAG_C FB=FLAG_B FA=FLAG_A EN=Enable

]]></metadata></svg>