<svg xmlns="http://www.w3.org/2000/svg" viewBox="0 0 237 580" width="237" height="580" font-family="system-ui,sans-serif"><defs><marker id="arr" viewBox="0 0 10 10" refX="9" refY="5" markerWidth="7" markerHeight="7" orient="auto-start-reverse"><path d="M0,0 L10,5 L0,10 z" fill="#555"/></marker><pattern id="hatch" width="6" height="6" patternUnits="userSpaceOnUse" patternTransform="rotate(45)"><line x1="0" y1="0" x2="0" y2="6" stroke="#bbb" stroke-width="2"/></pattern></defs><g transform="translate(18,6)"><line data-edge="14" x1="94.44999999999999" y1="56" x2="94.44999999999999" y2="100" stroke="#555" stroke-width="1.6" marker-end="url(#arr)"/><line data-edge="15" x1="94.44999999999999" y1="136" x2="94.44999999999999" y2="180" stroke="#555" stroke-width="1.6" marker-end="url(#arr)"/><line data-edge="16" x1="85.2267441860465" y1="228" x2="68.31744186046511" y2="272" stroke="#555" stroke-width="1.6" marker-end="url(#arr)"/><path data-edge="17" d="M106.11470588235294 228 L127.5 272 L127.5 308 L136.1 352 L136.1 400 L136.1 444 L136.1 480 L106.54193548387096 524" fill="none" stroke="#555" stroke-width="1.6" marker-end="url(#arr)"/><line data-edge="18" x1="59.6" y1="308" x2="55.199999999999996" y2="352" stroke="#555" stroke-width="1.6" marker-end="url(#arr)"/><line data-edge="19" x1="52.8" y1="400" x2="52.8" y2="444" stroke="#555" stroke-width="1.6" marker-end="url(#arr)"/><path data-edge="20" d="M105.6 376 L186.1 376 L186.1 118 L130.05 118" fill="none" stroke="#555" stroke-width="1.6" marker-end="url(#arr)"/><line data-edge="21" x1="62.17124999999999" y1="480" x2="85.07874999999999" y2="524" stroke="#555" stroke-width="1.6" marker-end="url(#arr)"/><g data-node="s" data-x="62.449999999999996" data-y="20" style="cursor:move"><rect x="62.449999999999996" y="20" width="64" height="36" rx="14" fill="#fff" stroke="#8a8880" stroke-width="1.8"/><text x="94.44999999999999" y="42.55" font-size="13" text-anchor="middle" fill="#1d1d1b">Start</text></g><g data-node="p1" data-x="58.849999999999994" data-y="100" style="cursor:move"><rect x="58.849999999999994" y="100" width="71.2" height="36" fill="#fff" stroke="#8a8880"/><text x="94.44999999999999" y="122.55" font-size="13" text-anchor="middle" fill="#1d1d1b">Step 1</text></g><g data-node="d1" data-x="41.65" data-y="180" style="cursor:move"><polygon points="94.44999999999999,180 147.25,204 94.44999999999999,228 41.65,204" fill="#fff" stroke="#8a8880"/><text x="94.44999999999999" y="208.55" font-size="13" text-anchor="middle" fill="#1d1d1b">Check A?</text></g><g data-node="p2" data-x="25.799999999999997" data-y="272" style="cursor:move"><rect x="25.799999999999997" y="272" width="71.2" height="36" fill="#fff" stroke="#8a8880"/><text x="61.4" y="294.55" font-size="13" text-anchor="middle" fill="#1d1d1b">Step 2</text></g><g data-node="d2" data-x="0" data-y="352" style="cursor:move"><polygon points="52.8,352 105.6,376 52.8,400 0,376" fill="#fff" stroke="#8a8880"/><text x="52.8" y="380.55" font-size="13" text-anchor="middle" fill="#1d1d1b">Check B?</text></g><g data-node="p3" data-x="17.199999999999996" data-y="444" style="cursor:move"><rect x="17.199999999999996" y="444" width="71.2" height="36" fill="#fff" stroke="#8a8880"/><text x="52.8" y="466.55" font-size="13" text-anchor="middle" fill="#1d1d1b">Step 3</text></g><g data-node="e" data-x="66.05" data-y="524" style="cursor:move"><rect x="66.05" y="524" width="56.8" height="36" rx="14" fill="#fff" stroke="#8a8880" stroke-width="1.8"/><text x="94.44999999999999" y="546.55" font-size="13" text-anchor="middle" fill="#1d1d1b">Done</text></g><text x="83.7720930232558" y="254" font-size="11" text-anchor="start" fill="#fff" stroke="#fff" stroke-width="3" stroke-linejoin="round">yes</text><text x="83.7720930232558" y="254" font-size="11" text-anchor="start" fill="#555">yes</text><text x="143.1" y="348" font-size="11" text-anchor="start" fill="#fff" stroke="#fff" stroke-width="3" stroke-linejoin="round">no</text><text x="143.1" y="348" font-size="11" text-anchor="start" fill="#555">no</text><text x="59.8" y="426" font-size="11" text-anchor="start" fill="#fff" stroke="#fff" stroke-width="3" stroke-linejoin="round">yes</text><text x="59.8" y="426" font-size="11" text-anchor="start" fill="#555">yes</text><text x="193.1" y="251" font-size="11" text-anchor="start" fill="#fff" stroke="#fff" stroke-width="3" stroke-linejoin="round">no</text><text x="193.1" y="251" font-size="11" text-anchor="start" fill="#555">no</text></g><metadata id="figdown-source" data-sha256="21b6c6606ce13792ff99a13f692c3a71d8eb9647d05778c73c512f57a0be9278"><![CDATA[
figdown 0.1 flowchart
title "Flow with Retry Loop"

node s   "Start"       shape=rounded
node p1  "Step 1"
node d1  "Check A?"    shape=diamond
node p2  "Step 2"
node d2  "Check B?"    shape=diamond
node p3  "Step 3"
node e   "Done"        shape=rounded

flow down

edge s  -> p1
edge p1 -> d1
edge d1 -[yes]-> p2
edge d1 -[no]-> e
edge p2 -> d2
edge d2 -[yes]-> p3
edge d2 -[no]-> p1
edge p3 -> e


]]></metadata></svg>