<svg xmlns="http://www.w3.org/2000/svg" viewBox="0 0 237 610" width="237" height="610" font-family="system-ui,sans-serif"><defs><marker id="arr" viewBox="0 0 10 10" refX="9" refY="5" markerWidth="7" markerHeight="7" orient="auto-start-reverse"><path d="M0,0 L10,5 L0,10 z" fill="#555"/></marker><pattern id="hatch" width="6" height="6" patternUnits="userSpaceOnUse" patternTransform="rotate(45)"><line x1="0" y1="0" x2="0" y2="6" stroke="#bbb" stroke-width="2"/></pattern></defs><g transform="translate(18,6)"><text x="0" y="16" font-size="15" font-weight="600" font-family="var(--sans)">Flow with Retry Loop</text><line x1="94.44999999999999" y1="86" x2="94.44999999999999" y2="130" stroke="#555" stroke-width="1.6" marker-end="url(#arr)"/><line x1="94.44999999999999" y1="166" x2="94.44999999999999" y2="210" stroke="#555" stroke-width="1.6" marker-end="url(#arr)"/><line x1="85.2267441860465" y1="258" x2="68.31744186046511" y2="302" stroke="#555" stroke-width="1.6" marker-end="url(#arr)"/><path d="M106.11470588235294 258 L127.5 302 L127.5 338 L136.1 382 L136.1 430 L136.1 474 L136.1 510 L106.54193548387096 554" fill="none" stroke="#555" stroke-width="1.6" marker-end="url(#arr)"/><line x1="59.6" y1="338" x2="55.199999999999996" y2="382" stroke="#555" stroke-width="1.6" marker-end="url(#arr)"/><line x1="52.8" y1="430" x2="52.8" y2="474" stroke="#555" stroke-width="1.6" marker-end="url(#arr)"/><path d="M105.6 406 L186.1 406 L186.1 148 L130.05 148" fill="none" stroke="#555" stroke-width="1.6" marker-end="url(#arr)"/><line x1="62.17124999999999" y1="510" x2="85.07874999999999" y2="554" stroke="#555" stroke-width="1.6" marker-end="url(#arr)"/><g data-node="s" data-x="62.449999999999996" data-y="50" style="cursor:move"><rect x="62.449999999999996" y="50" width="64" height="36" rx="14" fill="#fff" stroke="#8a8880" stroke-width="1.8"/><text x="94.44999999999999" y="72.55" font-size="13" text-anchor="middle" fill="#1d1d1b">Start</text></g><g data-node="p1" data-x="58.849999999999994" data-y="130" style="cursor:move"><rect x="58.849999999999994" y="130" width="71.2" height="36" fill="#fff" stroke="#8a8880"/><text x="94.44999999999999" y="152.55" font-size="13" text-anchor="middle" fill="#1d1d1b">Step 1</text></g><g data-node="d1" data-x="41.65" data-y="210" style="cursor:move"><polygon points="94.44999999999999,210 147.25,234 94.44999999999999,258 41.65,234" fill="#fff" stroke="#8a8880"/><text x="94.44999999999999" y="238.55" font-size="13" text-anchor="middle" fill="#1d1d1b">Check A?</text></g><g data-node="p2" data-x="25.799999999999997" data-y="302" style="cursor:move"><rect x="25.799999999999997" y="302" width="71.2" height="36" fill="#fff" stroke="#8a8880"/><text x="61.4" y="324.55" font-size="13" text-anchor="middle" fill="#1d1d1b">Step 2</text></g><g data-node="d2" data-x="0" data-y="382" style="cursor:move"><polygon points="52.8,382 105.6,406 52.8,430 0,406" fill="#fff" stroke="#8a8880"/><text x="52.8" y="410.55" font-size="13" text-anchor="middle" fill="#1d1d1b">Check B?</text></g><g data-node="p3" data-x="17.199999999999996" data-y="474" style="cursor:move"><rect x="17.199999999999996" y="474" width="71.2" height="36" fill="#fff" stroke="#8a8880"/><text x="52.8" y="496.55" font-size="13" text-anchor="middle" fill="#1d1d1b">Step 3</text></g><g data-node="e" data-x="66.05" data-y="554" style="cursor:move"><rect x="66.05" y="554" width="56.8" height="36" rx="14" fill="#fff" stroke="#8a8880" stroke-width="1.8"/><text x="94.44999999999999" y="576.55" font-size="13" text-anchor="middle" fill="#1d1d1b">Done</text></g><text x="83.7720930232558" y="284" font-size="11" text-anchor="start" fill="#fff" stroke="#fff" stroke-width="3" stroke-linejoin="round">yes</text><text x="83.7720930232558" y="284" font-size="11" text-anchor="start" fill="#555">yes</text><text x="143.1" y="378" font-size="11" text-anchor="start" fill="#fff" stroke="#fff" stroke-width="3" stroke-linejoin="round">no</text><text x="143.1" y="378" font-size="11" text-anchor="start" fill="#555">no</text><text x="59.8" y="456" font-size="11" text-anchor="start" fill="#fff" stroke="#fff" stroke-width="3" stroke-linejoin="round">yes</text><text x="59.8" y="456" font-size="11" text-anchor="start" fill="#555">yes</text><text x="193.1" y="281" font-size="11" text-anchor="start" fill="#fff" stroke="#fff" stroke-width="3" stroke-linejoin="round">no</text><text x="193.1" y="281" font-size="11" text-anchor="start" fill="#555">no</text></g><metadata id="figdown-source" data-sha256="21b6c6606ce13792ff99a13f692c3a71d8eb9647d05778c73c512f57a0be9278"><![CDATA[
figdown 0.1 flowchart
title "Flow with Retry Loop"

node s   "Start"       shape=rounded
node p1  "Step 1"
node d1  "Check A?"    shape=diamond
node p2  "Step 2"
node d2  "Check B?"    shape=diamond
node p3  "Step 3"
node e   "Done"        shape=rounded

flow down

edge s  -> p1
edge p1 -> d1
edge d1 -[yes]-> p2
edge d1 -[no]-> e
edge p2 -> d2
edge d2 -[yes]-> p3
edge d2 -[no]-> p1
edge p3 -> e


]]></metadata></svg>