<svg xmlns="http://www.w3.org/2000/svg" viewBox="0 0 719 288" width="719" height="288" font-family="system-ui,sans-serif"><defs><marker id="arr" viewBox="0 0 10 10" refX="9" refY="5" markerWidth="7" markerHeight="7" orient="auto-start-reverse"><path d="M0,0 L10,5 L0,10 z" fill="#555"/></marker><pattern id="hatch" width="6" height="6" patternUnits="userSpaceOnUse" patternTransform="rotate(45)"><line x1="0" y1="0" x2="0" y2="6" stroke="#bbb" stroke-width="2"/></pattern></defs><g transform="translate(18,6)"><text x="0" y="16" font-size="15" font-weight="600">Hub Pattern: Multiple States Converging to Reset</text><line data-edge="12" x1="212.4" y1="115.26984126984127" x2="78.4" y2="168.44444444444446" stroke="#555" stroke-width="1.6" marker-end="url(#arr)"/><line data-edge="13" x1="225.68" y1="122" x2="188.72000000000003" y2="166" stroke="#555" stroke-width="1.6" marker-end="url(#arr)"/><line data-edge="14" x1="255.92000000000002" y1="122" x2="292.88" y2="166" stroke="#555" stroke-width="1.6" marker-end="url(#arr)"/><line data-edge="15" x1="269.2" y1="115.26984126984127" x2="403.2" y2="168.44444444444443" stroke="#555" stroke-width="1.6" marker-end="url(#arr)"/><path data-edge="16" d="M39.2 202 L39.2 252 L649.1 252 L649.1 36 L223.76 36 L223.76 86" fill="none" stroke="#555" stroke-width="1.6" marker-end="url(#arr)"/><path data-edge="17" d="M173.60000000000002 202 L173.60000000000002 240 L602.6 240 L602.6 48 L235.12 48 L235.12 86" fill="none" stroke="#555" stroke-width="1.6" marker-end="url(#arr)"/><path data-edge="18" d="M308 202 L308 228 L556.1 228 L556.1 60 L246.48000000000002 60 L246.48000000000002 86" fill="none" stroke="#555" stroke-width="1.6" marker-end="url(#arr)"/><path data-edge="19" d="M442.4 202 L442.4 216 L509.6 216 L509.6 72 L257.84000000000003 72 L257.84000000000003 86" fill="none" stroke="#555" stroke-width="1.6" marker-end="url(#arr)"/><g data-node="idle" data-x="212.4" data-y="86" style="cursor:move"><rect x="212.4" y="86" width="56.8" height="36" rx="14" fill="#dbeafe" stroke="#8a8880" stroke-width="1.8"/><text x="240.8" y="108.55" font-size="13" text-anchor="middle" fill="#1d1d1b">IDLE</text></g><g data-node="state_a" data-x="0" data-y="166" style="cursor:move"><rect x="0" y="166" width="78.4" height="36" rx="14" fill="#fff" stroke="#8a8880" stroke-width="1.8"/><text x="39.2" y="188.55" font-size="13" text-anchor="middle" fill="#1d1d1b">STATE_A</text></g><g data-node="state_b" data-x="134.40000000000003" data-y="166" style="cursor:move"><rect x="134.40000000000003" y="166" width="78.4" height="36" rx="14" fill="#fff" stroke="#8a8880" stroke-width="1.8"/><text x="173.60000000000002" y="188.55" font-size="13" text-anchor="middle" fill="#1d1d1b">STATE_B</text></g><g data-node="state_c" data-x="268.8" data-y="166" style="cursor:move"><rect x="268.8" y="166" width="78.4" height="36" rx="14" fill="#fff" stroke="#8a8880" stroke-width="1.8"/><text x="308" y="188.55" font-size="13" text-anchor="middle" fill="#1d1d1b">STATE_C</text></g><g data-node="state_d" data-x="403.2" data-y="166" style="cursor:move"><rect x="403.2" y="166" width="78.4" height="36" rx="14" fill="#fff" stroke="#8a8880" stroke-width="1.8"/><text x="442.4" y="188.55" font-size="13" text-anchor="middle" fill="#1d1d1b">STATE_D</text></g><text x="145.4" y="136.85714285714286" font-size="11" text-anchor="middle" fill="#fff" stroke="#fff" stroke-width="3" stroke-linejoin="round">cond1</text><text x="145.4" y="136.85714285714286" font-size="11" text-anchor="middle" fill="#555">cond1</text><text x="214.20000000000002" y="148" font-size="11" text-anchor="start" fill="#fff" stroke="#fff" stroke-width="3" stroke-linejoin="round">cond2</text><text x="214.20000000000002" y="148" font-size="11" text-anchor="start" fill="#555">cond2</text><text x="281.4" y="148" font-size="11" text-anchor="start" fill="#fff" stroke="#fff" stroke-width="3" stroke-linejoin="round">cond3</text><text x="281.4" y="148" font-size="11" text-anchor="start" fill="#555">cond3</text><text x="336.2" y="136.85714285714283" font-size="11" text-anchor="middle" fill="#fff" stroke="#fff" stroke-width="3" stroke-linejoin="round">cond4</text><text x="336.2" y="136.85714285714283" font-size="11" text-anchor="middle" fill="#555">cond4</text><text x="656.1" y="148" font-size="11" text-anchor="start" fill="#fff" stroke="#fff" stroke-width="3" stroke-linejoin="round">reset</text><text x="656.1" y="148" font-size="11" text-anchor="start" fill="#555">reset</text><text x="609.6" y="148" font-size="11" text-anchor="start" fill="#fff" stroke="#fff" stroke-width="3" stroke-linejoin="round">reset</text><text x="609.6" y="148" font-size="11" text-anchor="start" fill="#555">reset</text><text x="563.1" y="148" font-size="11" text-anchor="start" fill="#fff" stroke="#fff" stroke-width="3" stroke-linejoin="round">reset</text><text x="563.1" y="148" font-size="11" text-anchor="start" fill="#555">reset</text><text x="516.6" y="148" font-size="11" text-anchor="start" fill="#fff" stroke="#fff" stroke-width="3" stroke-linejoin="round">reset</text><text x="516.6" y="148" font-size="11" text-anchor="start" fill="#555">reset</text></g><metadata id="figdown-source" data-sha256="26490c3eed3a9a95abd4bdafcf884e417cdcaba33ddda310bd20a057a70bb225"><![CDATA[
figdown 0.1 flowchart
title "Hub Pattern: Multiple States Converging to Reset"

node idle    "IDLE"     shape=rounded color=#dbeafe
node state_a "STATE_A"  shape=rounded
node state_b "STATE_B"  shape=rounded
node state_c "STATE_C"  shape=rounded
node state_d "STATE_D"  shape=rounded

flow down

edge idle -[cond1]-> state_a
edge idle -[cond2]-> state_b
edge idle -[cond3]-> state_c
edge idle -[cond4]-> state_d
edge state_a -[reset]-> idle
edge state_b -[reset]-> idle
edge state_c -[reset]-> idle
edge state_d -[reset]-> idle

]]></metadata></svg>