<svg xmlns="http://www.w3.org/2000/svg" viewBox="0 0 719 258" width="719" height="258" font-family="system-ui,sans-serif"><defs><marker id="arr" viewBox="0 0 10 10" refX="9" refY="5" markerWidth="7" markerHeight="7" orient="auto-start-reverse"><path d="M0,0 L10,5 L0,10 z" fill="#555"/></marker><pattern id="hatch" width="6" height="6" patternUnits="userSpaceOnUse" patternTransform="rotate(45)"><line x1="0" y1="0" x2="0" y2="6" stroke="#bbb" stroke-width="2"/></pattern></defs><g transform="translate(18,6)"><line data-edge="12" x1="212.4" y1="85.26984126984127" x2="78.4" y2="138.44444444444446" stroke="#555" stroke-width="1.6" marker-end="url(#arr)"/><line data-edge="13" x1="225.68" y1="92" x2="188.72000000000003" y2="136" stroke="#555" stroke-width="1.6" marker-end="url(#arr)"/><line data-edge="14" x1="255.92000000000002" y1="92" x2="292.88" y2="136" stroke="#555" stroke-width="1.6" marker-end="url(#arr)"/><line data-edge="15" x1="269.2" y1="85.26984126984127" x2="403.2" y2="138.44444444444443" stroke="#555" stroke-width="1.6" marker-end="url(#arr)"/><path data-edge="16" d="M39.2 172 L39.2 222 L649.1 222 L649.1 6 L223.76 6 L223.76 56" fill="none" stroke="#555" stroke-width="1.6" marker-end="url(#arr)"/><path data-edge="17" d="M173.60000000000002 172 L173.60000000000002 210 L602.6 210 L602.6 18 L235.12 18 L235.12 56" fill="none" stroke="#555" stroke-width="1.6" marker-end="url(#arr)"/><path data-edge="18" d="M308 172 L308 198 L556.1 198 L556.1 30 L246.48000000000002 30 L246.48000000000002 56" fill="none" stroke="#555" stroke-width="1.6" marker-end="url(#arr)"/><path data-edge="19" d="M442.4 172 L442.4 186 L509.6 186 L509.6 42 L257.84000000000003 42 L257.84000000000003 56" fill="none" stroke="#555" stroke-width="1.6" marker-end="url(#arr)"/><g data-node="idle" data-x="212.4" data-y="56" style="cursor:move"><rect x="212.4" y="56" width="56.8" height="36" rx="14" fill="#dbeafe" stroke="#8a8880" stroke-width="1.8"/><text x="240.8" y="78.55" font-size="13" text-anchor="middle" fill="#1d1d1b">IDLE</text></g><g data-node="state_a" data-x="0" data-y="136" style="cursor:move"><rect x="0" y="136" width="78.4" height="36" rx="14" fill="#fff" stroke="#8a8880" stroke-width="1.8"/><text x="39.2" y="158.55" font-size="13" text-anchor="middle" fill="#1d1d1b">STATE_A</text></g><g data-node="state_b" data-x="134.40000000000003" data-y="136" style="cursor:move"><rect x="134.40000000000003" y="136" width="78.4" height="36" rx="14" fill="#fff" stroke="#8a8880" stroke-width="1.8"/><text x="173.60000000000002" y="158.55" font-size="13" text-anchor="middle" fill="#1d1d1b">STATE_B</text></g><g data-node="state_c" data-x="268.8" data-y="136" style="cursor:move"><rect x="268.8" y="136" width="78.4" height="36" rx="14" fill="#fff" stroke="#8a8880" stroke-width="1.8"/><text x="308" y="158.55" font-size="13" text-anchor="middle" fill="#1d1d1b">STATE_C</text></g><g data-node="state_d" data-x="403.2" data-y="136" style="cursor:move"><rect x="403.2" y="136" width="78.4" height="36" rx="14" fill="#fff" stroke="#8a8880" stroke-width="1.8"/><text x="442.4" y="158.55" font-size="13" text-anchor="middle" fill="#1d1d1b">STATE_D</text></g><text x="145.4" y="106.85714285714286" font-size="11" text-anchor="middle" fill="#fff" stroke="#fff" stroke-width="3" stroke-linejoin="round">cond1</text><text x="145.4" y="106.85714285714286" font-size="11" text-anchor="middle" fill="#555">cond1</text><text x="214.20000000000002" y="118" font-size="11" text-anchor="start" fill="#fff" stroke="#fff" stroke-width="3" stroke-linejoin="round">cond2</text><text x="214.20000000000002" y="118" font-size="11" text-anchor="start" fill="#555">cond2</text><text x="281.4" y="118" font-size="11" text-anchor="start" fill="#fff" stroke="#fff" stroke-width="3" stroke-linejoin="round">cond3</text><text x="281.4" y="118" font-size="11" text-anchor="start" fill="#555">cond3</text><text x="336.2" y="106.85714285714285" font-size="11" text-anchor="middle" fill="#fff" stroke="#fff" stroke-width="3" stroke-linejoin="round">cond4</text><text x="336.2" y="106.85714285714285" font-size="11" text-anchor="middle" fill="#555">cond4</text><text x="656.1" y="118" font-size="11" text-anchor="start" fill="#fff" stroke="#fff" stroke-width="3" stroke-linejoin="round">reset</text><text x="656.1" y="118" font-size="11" text-anchor="start" fill="#555">reset</text><text x="609.6" y="118" font-size="11" text-anchor="start" fill="#fff" stroke="#fff" stroke-width="3" stroke-linejoin="round">reset</text><text x="609.6" y="118" font-size="11" text-anchor="start" fill="#555">reset</text><text x="563.1" y="118" font-size="11" text-anchor="start" fill="#fff" stroke="#fff" stroke-width="3" stroke-linejoin="round">reset</text><text x="563.1" y="118" font-size="11" text-anchor="start" fill="#555">reset</text><text x="516.6" y="118" font-size="11" text-anchor="start" fill="#fff" stroke="#fff" stroke-width="3" stroke-linejoin="round">reset</text><text x="516.6" y="118" font-size="11" text-anchor="start" fill="#555">reset</text></g><metadata id="figdown-source" data-sha256="26490c3eed3a9a95abd4bdafcf884e417cdcaba33ddda310bd20a057a70bb225"><![CDATA[
figdown 0.1 flowchart
title "Hub Pattern: Multiple States Converging to Reset"

node idle    "IDLE"     shape=rounded color=#dbeafe
node state_a "STATE_A"  shape=rounded
node state_b "STATE_B"  shape=rounded
node state_c "STATE_C"  shape=rounded
node state_d "STATE_D"  shape=rounded

flow down

edge idle -[cond1]-> state_a
edge idle -[cond2]-> state_b
edge idle -[cond3]-> state_c
edge idle -[cond4]-> state_d
edge state_a -[reset]-> idle
edge state_b -[reset]-> idle
edge state_c -[reset]-> idle
edge state_d -[reset]-> idle

]]></metadata></svg>