<svg xmlns="http://www.w3.org/2000/svg" viewBox="0 0 335 244" width="335" height="244" font-family="system-ui,sans-serif"><defs><marker id="arr" viewBox="0 0 10 10" refX="9" refY="5" markerWidth="7" markerHeight="7" orient="auto-start-reverse"><path d="M0,0 L10,5 L0,10 z" fill="#555"/></marker><pattern id="hatch" width="6" height="6" patternUnits="userSpaceOnUse" patternTransform="rotate(45)"><line x1="0" y1="0" x2="0" y2="6" stroke="#bbb" stroke-width="2"/></pattern></defs><g transform="translate(18,6)"><text x="0" y="14" font-size="13" font-weight="600">Feature Matrix — rowspan/colspan merges with cell colors</text><rect x="0" y="22" width="78.4" height="26" fill="#eeede6" stroke="#c9c7bf" data-cell="tb:0:1" style="cursor:pointer"/><text x="39.2" y="39.3" font-size="12" text-anchor="middle" font-weight="600">Feature</text><rect x="78.4" y="22" width="64" height="26" fill="#eeede6" stroke="#c9c7bf" data-cell="tb:0:2" style="cursor:pointer"/><text x="110.4" y="39.3" font-size="12" text-anchor="middle" font-weight="600">Cat A</text><rect x="142.4" y="22" width="64" height="26" fill="#eeede6" stroke="#c9c7bf" data-cell="tb:0:3" style="cursor:pointer"/><text x="174.4" y="39.3" font-size="12" text-anchor="middle" font-weight="600">Cat B</text><rect x="206.4" y="22" width="100" height="26" fill="#eeede6" stroke="#c9c7bf" data-cell="tb:0:4" style="cursor:pointer"/><text x="256.4" y="39.3" font-size="12" text-anchor="middle" font-weight="600">Notes</text><rect x="0" y="48" width="78.4" height="26" fill="#fef3c7" stroke="#c9c7bf" data-cell="tb:1:1" style="cursor:pointer"/><text x="7" y="65.3" font-size="12" text-anchor="start">Item 1</text><rect x="78.4" y="48" width="64" height="26" fill="#d1fae5" stroke="#c9c7bf" data-cell="tb:1:2" style="cursor:pointer"/><text x="110.4" y="65.3" font-size="12" text-anchor="middle">yes</text><rect x="142.4" y="48" width="64" height="26" fill="#d1fae5" stroke="#c9c7bf" data-cell="tb:1:3" style="cursor:pointer"/><text x="174.4" y="65.3" font-size="12" text-anchor="middle">yes</text><rect x="206.4" y="48" width="100" height="26" fill="#fef3c7" stroke="#c9c7bf" data-cell="tb:1:4" style="cursor:pointer"/><text x="213.4" y="65.3" font-size="12" text-anchor="start">baseline</text><rect x="0" y="74" width="78.4" height="26" fill="#fff" stroke="#c9c7bf" data-cell="tb:2:1" style="cursor:pointer"/><text x="7" y="91.3" font-size="12" text-anchor="start">Item 2</text><rect x="78.4" y="74" width="64" height="26" fill="#fff" stroke="#c9c7bf" data-cell="tb:2:2" style="cursor:pointer"/><text x="110.4" y="91.3" font-size="12" text-anchor="middle">yes</text><rect x="142.4" y="74" width="64" height="26" fill="#fecaca" stroke="#c9c7bf" data-cell="tb:2:3" style="cursor:pointer"/><text x="174.4" y="91.3" font-size="12" text-anchor="middle">no</text><rect x="206.4" y="74" width="100" height="26" fill="#fff" stroke="#c9c7bf" data-cell="tb:2:4" style="cursor:pointer"/><text x="213.4" y="91.3" font-size="12" text-anchor="start">cat-a only</text><rect x="0" y="100" width="78.4" height="26" fill="#fff" stroke="#c9c7bf" data-cell="tb:3:1" style="cursor:pointer"/><text x="7" y="117.3" font-size="12" text-anchor="start">Item 3</text><rect x="78.4" y="100" width="64" height="26" fill="#fecaca" stroke="#c9c7bf" data-cell="tb:3:2" style="cursor:pointer"/><text x="110.4" y="117.3" font-size="12" text-anchor="middle">no</text><rect x="142.4" y="100" width="64" height="26" fill="#fff" stroke="#c9c7bf" data-cell="tb:3:3" style="cursor:pointer"/><text x="174.4" y="117.3" font-size="12" text-anchor="middle">yes</text><rect x="206.4" y="100" width="100" height="26" fill="#fff" stroke="#c9c7bf" data-cell="tb:3:4" style="cursor:pointer"/><text x="213.4" y="117.3" font-size="12" text-anchor="start">cat-b only</text><rect x="0" y="126" width="78.4" height="26" fill="#fef3c7" stroke="#c9c7bf" data-cell="tb:4:1" style="cursor:pointer"/><text x="7" y="143.3" font-size="12" text-anchor="start">Item 4</text><rect x="78.4" y="126" width="128" height="52" fill="#dbeafe" stroke="#c9c7bf" data-cell="tb:4:2" style="cursor:pointer"/><text x="142.4" y="156.3" font-size="12" text-anchor="middle">yes</text><rect x="206.4" y="126" width="100" height="26" fill="#fef3c7" stroke="#c9c7bf" data-cell="tb:4:4" style="cursor:pointer"/><text x="213.4" y="143.3" font-size="12" text-anchor="start">shared</text><rect x="0" y="152" width="78.4" height="26" fill="#fff" stroke="#c9c7bf" data-cell="tb:5:1" style="cursor:pointer"/><text x="7" y="169.3" font-size="12" text-anchor="start">Item 5</text><rect x="206.4" y="152" width="100" height="26" fill="#fff" stroke="#c9c7bf" data-cell="tb:5:4" style="cursor:pointer"/><text x="213.4" y="169.3" font-size="12" text-anchor="start">shared</text><rect x="0" y="178" width="78.4" height="26" fill="#fef3c7" stroke="#c9c7bf" data-cell="tb:6:1" style="cursor:pointer"/><text x="7" y="195.3" font-size="12" text-anchor="start">Item 6</text><rect x="78.4" y="178" width="64" height="26" fill="#fef3c7" stroke="#c9c7bf" data-cell="tb:6:2" style="cursor:pointer"/><text x="110.4" y="195.3" font-size="12" text-anchor="middle">—</text><rect x="142.4" y="178" width="64" height="26" fill="#fef3c7" stroke="#c9c7bf" data-cell="tb:6:3" style="cursor:pointer"/><text x="174.4" y="195.3" font-size="12" text-anchor="middle">—</text><rect x="206.4" y="178" width="100" height="26" fill="#fef3c7" stroke="#c9c7bf" data-cell="tb:6:4" style="cursor:pointer"/><text x="213.4" y="195.3" font-size="12" text-anchor="start">none</text></g><metadata id="figdown-source" data-sha256="ef4fad8f24f9dc6d8da46f76a164ba541a8f0bd7d818a50318ed773029b47790"><![CDATA[
figdown 0.1 table
table tb "Feature Matrix — rowspan/colspan merges with cell colors"
| Feature          | Cat A    | Cat B   | Notes         |
|------------------|:--------:|:-------:|---------------|
| Item 1           | yes      | yes     | baseline      |
| Item 2           | yes      | no      | cat-a only    |
| Item 3           | no       | yes     | cat-b only    |
| Item 4           | yes            || shared        |
| Item 5           | ^^             || shared        |
| Item 6           | —       | —       | none          |
cell 1 highlight
cell 4 highlight
cell 6 highlight
cell 1,2 color=#d1fae5
cell 1,3 color=#d1fae5
cell 2,3 color=#fecaca
cell 3,2 color=#fecaca
cell 4,2 color=#dbeafe

]]></metadata></svg>