<svg xmlns="http://www.w3.org/2000/svg" viewBox="0 0 363 244" width="363" height="244" font-family="system-ui,sans-serif"><defs><marker id="arr" viewBox="0 0 10 10" refX="9" refY="5" markerWidth="7" markerHeight="7" orient="auto-start-reverse"><path d="M0,0 L10,5 L0,10 z" fill="#555"/></marker><pattern id="hatch" width="6" height="6" patternUnits="userSpaceOnUse" patternTransform="rotate(45)"><line x1="0" y1="0" x2="0" y2="6" stroke="#bbb" stroke-width="2"/></pattern></defs><g transform="translate(18,6)"><text x="0" y="14" font-size="13" font-weight="600">Group Matrix — two-tier header with label column</text><rect x="0" y="22" width="78.4" height="26" fill="#eeede6" stroke="#c9c7bf"/><text x="39.2" y="39.3" font-size="12" text-anchor="middle" font-weight="600">Label</text><rect x="78.4" y="22" width="128" height="26" fill="#eeede6" stroke="#c9c7bf"/><text x="142.4" y="39.3" font-size="12" text-anchor="middle" font-weight="600">Metric A</text><rect x="206.4" y="22" width="128" height="26" fill="#eeede6" stroke="#c9c7bf"/><text x="270.4" y="39.3" font-size="12" text-anchor="middle" font-weight="600">Metric B</text><rect x="0" y="48" width="78.4" height="26" fill="#eeede6" stroke="#c9c7bf" data-cell="ta:0:1" style="cursor:pointer"/><text x="39.2" y="65.3" font-size="12" text-anchor="middle" font-weight="600">Label</text><rect x="78.4" y="48" width="85.6" height="26" fill="#dbeafe" stroke="#c9c7bf" data-cell="ta:0:2" style="cursor:pointer"/><text x="121.2" y="65.3" font-size="12" text-anchor="middle" font-weight="600">v1</text><rect x="164" y="48" width="42.4" height="26" fill="#eeede6" stroke="#c9c7bf" data-cell="ta:0:3" style="cursor:pointer"/><text x="185.2" y="65.3" font-size="12" text-anchor="middle" font-weight="600">v2</text><rect x="206.4" y="48" width="85.6" height="26" fill="#d1fae5" stroke="#c9c7bf" data-cell="ta:0:4" style="cursor:pointer"/><text x="249.2" y="65.3" font-size="12" text-anchor="middle" font-weight="600">v1</text><rect x="292" y="48" width="42.4" height="26" fill="#eeede6" stroke="#c9c7bf" data-cell="ta:0:5" style="cursor:pointer"/><text x="313.2" y="65.3" font-size="12" text-anchor="middle" font-weight="600">v2</text><rect x="0" y="74" width="78.4" height="52" fill="#fef3c7" stroke="#c9c7bf" data-cell="ta:1:1" style="cursor:pointer"/><text x="7" y="104.3" font-size="12" text-anchor="start">Group A</text><rect x="78.4" y="74" width="85.6" height="26" fill="#fef3c7" stroke="#c9c7bf" data-cell="ta:1:2" style="cursor:pointer"/><text x="121.2" y="91.3" font-size="12" text-anchor="middle">x</text><rect x="164" y="74" width="42.4" height="26" fill="#fef3c7" stroke="#c9c7bf" data-cell="ta:1:3" style="cursor:pointer"/><text x="185.2" y="91.3" font-size="12" text-anchor="middle">x</text><rect x="206.4" y="74" width="85.6" height="26" fill="#fef3c7" stroke="#c9c7bf" data-cell="ta:1:4" style="cursor:pointer"/><text x="249.2" y="91.3" font-size="12" text-anchor="middle">x</text><rect x="292" y="74" width="42.4" height="26" fill="#fef3c7" stroke="#c9c7bf" data-cell="ta:1:5" style="cursor:pointer"/><text x="313.2" y="91.3" font-size="12" text-anchor="middle"></text><rect x="78.4" y="100" width="85.6" height="26" fill="#fff" stroke="#c9c7bf" data-cell="ta:2:2" style="cursor:pointer"/><text x="121.2" y="117.3" font-size="12" text-anchor="middle">x</text><rect x="164" y="100" width="42.4" height="26" fill="#fff" stroke="#c9c7bf" data-cell="ta:2:3" style="cursor:pointer"/><text x="185.2" y="117.3" font-size="12" text-anchor="middle"></text><rect x="206.4" y="100" width="85.6" height="26" fill="#fff" stroke="#c9c7bf" data-cell="ta:2:4" style="cursor:pointer"/><text x="249.2" y="117.3" font-size="12" text-anchor="middle">x</text><rect x="292" y="100" width="42.4" height="26" fill="#fff" stroke="#c9c7bf" data-cell="ta:2:5" style="cursor:pointer"/><text x="313.2" y="117.3" font-size="12" text-anchor="middle">x</text><rect x="0" y="126" width="78.4" height="52" fill="#fff" stroke="#c9c7bf" data-cell="ta:3:1" style="cursor:pointer"/><text x="7" y="156.3" font-size="12" text-anchor="start">Group B</text><rect x="78.4" y="126" width="85.6" height="26" fill="#fff" stroke="#c9c7bf" data-cell="ta:3:2" style="cursor:pointer"/><text x="121.2" y="143.3" font-size="12" text-anchor="middle">x</text><rect x="164" y="126" width="42.4" height="26" fill="#fff" stroke="#c9c7bf" data-cell="ta:3:3" style="cursor:pointer"/><text x="185.2" y="143.3" font-size="12" text-anchor="middle">x</text><rect x="206.4" y="126" width="85.6" height="26" fill="#fff" stroke="#c9c7bf" data-cell="ta:3:4" style="cursor:pointer"/><text x="249.2" y="143.3" font-size="12" text-anchor="middle"></text><rect x="292" y="126" width="42.4" height="26" fill="#fff" stroke="#c9c7bf" data-cell="ta:3:5" style="cursor:pointer"/><text x="313.2" y="143.3" font-size="12" text-anchor="middle"></text><rect x="78.4" y="152" width="85.6" height="26" fill="#fef3c7" stroke="#c9c7bf" data-cell="ta:4:2" style="cursor:pointer"/><text x="121.2" y="169.3" font-size="12" text-anchor="middle"></text><rect x="164" y="152" width="42.4" height="26" fill="#fef3c7" stroke="#c9c7bf" data-cell="ta:4:3" style="cursor:pointer"/><text x="185.2" y="169.3" font-size="12" text-anchor="middle">x</text><rect x="206.4" y="152" width="85.6" height="26" fill="#fef3c7" stroke="#c9c7bf" data-cell="ta:4:4" style="cursor:pointer"/><text x="249.2" y="169.3" font-size="12" text-anchor="middle">x</text><rect x="292" y="152" width="42.4" height="26" fill="#fef3c7" stroke="#c9c7bf" data-cell="ta:4:5" style="cursor:pointer"/><text x="313.2" y="169.3" font-size="12" text-anchor="middle">x</text><rect x="0" y="178" width="78.4" height="26" fill="#fff" stroke="#c9c7bf" data-cell="ta:5:1" style="cursor:pointer"/><text x="7" y="195.3" font-size="12" text-anchor="start">Group C</text><rect x="78.4" y="178" width="85.6" height="26" fill="#fff" stroke="#c9c7bf" data-cell="ta:5:2" style="cursor:pointer"/><text x="121.2" y="195.3" font-size="12" text-anchor="middle">x</text><rect x="164" y="178" width="42.4" height="26" fill="#fff" stroke="#c9c7bf" data-cell="ta:5:3" style="cursor:pointer"/><text x="185.2" y="195.3" font-size="12" text-anchor="middle">x</text><rect x="206.4" y="178" width="85.6" height="26" fill="#fff" stroke="#c9c7bf" data-cell="ta:5:4" style="cursor:pointer"/><text x="249.2" y="195.3" font-size="12" text-anchor="middle">x</text><rect x="292" y="178" width="42.4" height="26" fill="#fff" stroke="#c9c7bf" data-cell="ta:5:5" style="cursor:pointer"/><text x="313.2" y="195.3" font-size="12" text-anchor="middle">x</text></g><metadata id="figdown-source" data-sha256="fab3069453232e5f3ab56277b15615a2b379f52fba12ac302d42a4d95de4bd1c"><![CDATA[
figdown 0.1 table
table ta "Group Matrix — two-tier header with label column"
| Label    | Metric A     || Metric B     ||
| Label    | v1    | v2    | v1    | v2    |
|----------|:-----:|:-----:|:-----:|:-----:|
| Group A  | x     | x     | x     |       |
| ^^       | x     |       | x     | x     |
| Group B  | x     | x     |       |       |
| ^^       |       | x     | x     | x     |
| Group C  | x     | x     | x     | x     |
cell h2,2 color=#dbeafe
cell h2,4 color=#d1fae5
cell 1 highlight
cell 4 highlight

]]></metadata></svg>