<svg xmlns="http://www.w3.org/2000/svg" viewBox="0 0 452 228" width="452" height="228" font-family="system-ui,sans-serif"><defs><marker id="arr" viewBox="0 0 10 10" refX="9" refY="5" markerWidth="7" markerHeight="7" orient="auto-start-reverse"><path d="M0,0 L10,5 L0,10 z" fill="#555"/></marker><pattern id="hatch" width="6" height="6" patternUnits="userSpaceOnUse" patternTransform="rotate(45)"><line x1="0" y1="0" x2="0" y2="6" stroke="#bbb" stroke-width="2"/></pattern></defs><g transform="translate(18,6)"><text x="0" y="14" font-size="13" font-weight="600">Clocked handshake: request / acknowledge</text><text x="50" y="41" font-size="11.5" text-anchor="end" font-family="monospace">clk</text><path d="M60,26 L73,26 L73,48 L86,48 M86,26 L99,26 L99,48 L112,48 M86,26 L86,48 M112,26 L125,26 L125,48 L138,48 M112,26 L112,48 M138,26 L151,26 L151,48 L164,48 M138,26 L138,48 M164,26 L177,26 L177,48 L190,48 M164,26 L164,48 M190,26 L203,26 L203,48 L216,48 M190,26 L190,48 M216,26 L229,26 L229,48 L242,48 M216,26 L216,48 M242,26 L255,26 L255,48 L268,48 M242,26 L242,48 M268,26 L281,26 L281,48 L294,48 M268,26 L268,48 M294,26 L307,26 L307,48 L320,48 M294,26 L294,48 M320,26 L333,26 L333,48 L346,48 M320,26 L320,48 M346,26 L359,26 L359,48 L372,48 M346,26 L346,48 M372,26 L385,26 L385,48 L398,48 M372,26 L372,48 M398,26 L411,26 L411,48 L424,48 M398,26 L398,48 " fill="none" stroke="#1d4ed8" stroke-width="1.6"/><text x="50" y="83" font-size="11.5" text-anchor="end" font-family="monospace">req</text><path d="M60,90 L86,90 M86,90 L112,90 M112,90 L138,90 M138,90 L138,68 M138,68 L164,68 M164,68 L190,68 M190,68 L216,68 M216,68 L242,68 M242,68 L268,68 M268,68 L294,68 M294,68 L320,68 M320,68 L320,90 M320,90 L346,90 M346,90 L372,90 M372,90 L398,90 M398,90 L424,90 " fill="none" stroke="#1d4ed8" stroke-width="1.6"/><text x="50" y="125" font-size="11.5" text-anchor="end" font-family="monospace">ack</text><path d="M60,132 L86,132 M86,132 L112,132 M112,132 L138,132 M138,132 L164,132 M164,132 L190,132 M190,132 L190,110 M190,110 L216,110 M216,110 L242,110 M242,110 L268,110 M268,110 L294,110 M294,110 L320,110 M320,110 L346,110 M346,110 L346,132 M346,132 L372,132 M372,132 L398,132 M398,132 L424,132 " fill="none" stroke="#1d4ed8" stroke-width="1.6"/><text x="50" y="167" font-size="11.5" text-anchor="end" font-family="monospace">done</text><path d="M60,174 L86,174 M86,174 L112,174 M112,174 L138,174 M138,174 L164,174 M164,174 L190,174 M190,174 L216,174 M216,174 L242,174 M242,174 L268,174 M268,174 L294,174 M294,174 L320,174 M320,174 L320,152 M320,152 L346,152 M346,152 L372,152 M372,152 L372,174 M372,174 L398,174 M398,174 L424,174 " fill="none" stroke="#1d4ed8" stroke-width="1.6"/></g><metadata id="figdown-source" data-sha256="7db42155a0731419226c89705115f383fb02e9d76ffcc5468836fa28b6117d1c"><![CDATA[
figdown 0.1 wave
wave handshake "Clocked handshake: request / acknowledge"
signal clk   pppppppppppppp
signal req   00011111110000
signal ack   00000111111000
signal done  00000000001100

]]></metadata></svg>