<svg xmlns="http://www.w3.org/2000/svg" viewBox="0 0 560 186" width="560" height="186" font-family="system-ui,sans-serif"><defs><marker id="arr" viewBox="0 0 10 10" refX="9" refY="5" markerWidth="7" markerHeight="7" orient="auto-start-reverse"><path d="M0,0 L10,5 L0,10 z" fill="#555"/></marker><pattern id="hatch" width="6" height="6" patternUnits="userSpaceOnUse" patternTransform="rotate(45)"><line x1="0" y1="0" x2="0" y2="6" stroke="#bbb" stroke-width="2"/></pattern></defs><g transform="translate(18,6)"><text x="0" y="14" font-size="13" font-weight="600">Data-bus transfer: valid + labelled data segments</text><text x="54" y="41" font-size="11.5" text-anchor="end" font-family="monospace">clk</text><path d="M64,26 L77,26 L77,48 L90,48 M90,26 L103,26 L103,48 L116,48 M90,26 L90,48 M116,26 L129,26 L129,48 L142,48 M116,26 L116,48 M142,26 L155,26 L155,48 L168,48 M142,26 L142,48 M168,26 L181,26 L181,48 L194,48 M168,26 L168,48 M194,26 L207,26 L207,48 L220,48 M194,26 L194,48 M220,26 L233,26 L233,48 L246,48 M220,26 L220,48 M246,26 L259,26 L259,48 L272,48 M246,26 L246,48 M272,26 L285,26 L285,48 L298,48 M272,26 L272,48 M298,26 L311,26 L311,48 L324,48 M298,26 L298,48 M324,26 L337,26 L337,48 L350,48 M324,26 L324,48 M350,26 L363,26 L363,48 L376,48 M350,26 L350,48 M376,26 L389,26 L389,48 L402,48 M376,26 L376,48 M402,26 L415,26 L415,48 L428,48 M402,26 L402,48 M428,26 L441,26 L441,48 L454,48 M428,26 L428,48 M454,26 L467,26 L467,48 L480,48 M454,26 L454,48 M480,26 L493,26 L493,48 L506,48 M480,26 L480,48 M506,26 L519,26 L519,48 L532,48 M506,26 L506,48 " fill="none" stroke="#1d4ed8" stroke-width="1.6"/><text x="54" y="83" font-size="11.5" text-anchor="end" font-family="monospace">valid</text><path d="M64,90 L90,90 M90,90 L116,90 M116,90 L142,90 M142,90 L168,90 M168,90 L168,68 M168,68 L194,68 M194,68 L220,68 M220,68 L246,68 M246,68 L272,68 M272,68 L272,90 M272,90 L298,90 M298,90 L324,90 M324,90 L350,90 M350,90 L350,68 M350,68 L376,68 M376,68 L402,68 M402,68 L428,68 M428,68 L454,68 M454,68 L454,90 M454,90 L480,90 M480,90 L506,90 M506,90 L532,90 " fill="none" stroke="#1d4ed8" stroke-width="1.6"/><text x="54" y="125" font-size="11.5" text-anchor="end" font-family="monospace">data</text><rect x="64" y="110" width="26" height="22" fill="url(#hatch)" stroke="#999"/><rect x="90" y="110" width="26" height="22" fill="url(#hatch)" stroke="#999"/><rect x="116" y="110" width="26" height="22" fill="url(#hatch)" stroke="#999"/><rect x="142" y="110" width="26" height="22" fill="url(#hatch)" stroke="#999"/><rect x="168" y="110" width="26" height="22" fill="#eef6ff" stroke="#7aa7d9"/><text x="181" y="125" font-size="10.5" text-anchor="middle">A</text><rect x="194" y="110" width="78" height="22" fill="#eef6ff" stroke="#7aa7d9"/><text x="233" y="125" font-size="10.5" text-anchor="middle">B</text><rect x="272" y="110" width="26" height="22" fill="url(#hatch)" stroke="#999"/><rect x="298" y="110" width="26" height="22" fill="url(#hatch)" stroke="#999"/><rect x="324" y="110" width="26" height="22" fill="url(#hatch)" stroke="#999"/><rect x="350" y="110" width="26" height="22" fill="url(#hatch)" stroke="#999"/><rect x="376" y="110" width="26" height="22" fill="#eef6ff" stroke="#7aa7d9"/><text x="389" y="125" font-size="10.5" text-anchor="middle">C</text><rect x="402" y="110" width="78" height="22" fill="#eef6ff" stroke="#7aa7d9"/><text x="441" y="125" font-size="10.5" text-anchor="middle">D</text><rect x="480" y="110" width="26" height="22" fill="url(#hatch)" stroke="#999"/><rect x="506" y="110" width="26" height="22" fill="url(#hatch)" stroke="#999"/></g><metadata id="figdown-source" data-sha256="c321e0df0c48aa3f8856db73d91addb4bfe4cc88b4ebc60a72b45da8dd352bfd"><![CDATA[
figdown 0.1 wave
wave datatransfer "Data-bus transfer: valid + labelled data segments"
signal clk   pppppppppppppppppp
signal valid 000011110001111000
signal data  xxx.==..xxx.==..xx  labels="A,B,C,D"

]]></metadata></svg>