<svg xmlns="http://www.w3.org/2000/svg" viewBox="0 0 764 404" width="764" height="404" font-family="system-ui,sans-serif"><defs><marker id="arr" viewBox="0 0 10 10" refX="9" refY="5" markerWidth="7" markerHeight="7" orient="auto-start-reverse"><path d="M0,0 L10,5 L0,10 z" fill="#555"/></marker><pattern id="hatch" width="6" height="6" patternUnits="userSpaceOnUse" patternTransform="rotate(45)"><line x1="0" y1="0" x2="0" y2="6" stroke="#bbb" stroke-width="2"/></pattern></defs><g transform="translate(18,6)"><text x="0" y="14" font-size="13" font-weight="600">IPv6 Header (RFC 8200)</text><text x="11.5" y="29" font-size="8.5" text-anchor="middle" fill="#6f6e69">0</text><text x="34.5" y="29" font-size="8.5" text-anchor="middle" fill="#6f6e69">1</text><text x="57.5" y="29" font-size="8.5" text-anchor="middle" fill="#6f6e69">2</text><text x="80.5" y="29" font-size="8.5" text-anchor="middle" fill="#6f6e69">3</text><text x="103.5" y="29" font-size="8.5" text-anchor="middle" fill="#6f6e69">4</text><text x="126.5" y="29" font-size="8.5" text-anchor="middle" fill="#6f6e69">5</text><text x="149.5" y="29" font-size="8.5" text-anchor="middle" fill="#6f6e69">6</text><text x="172.5" y="29" font-size="8.5" text-anchor="middle" fill="#6f6e69">7</text><text x="195.5" y="29" font-size="8.5" text-anchor="middle" fill="#6f6e69">8</text><text x="218.5" y="29" font-size="8.5" text-anchor="middle" fill="#6f6e69">9</text><text x="241.5" y="29" font-size="8.5" text-anchor="middle" fill="#6f6e69">10</text><text x="264.5" y="29" font-size="8.5" text-anchor="middle" fill="#6f6e69">11</text><text x="287.5" y="29" font-size="8.5" text-anchor="middle" fill="#6f6e69">12</text><text x="310.5" y="29" font-size="8.5" text-anchor="middle" fill="#6f6e69">13</text><text x="333.5" y="29" font-size="8.5" text-anchor="middle" fill="#6f6e69">14</text><text x="356.5" y="29" font-size="8.5" text-anchor="middle" fill="#6f6e69">15</text><text x="379.5" y="29" font-size="8.5" text-anchor="middle" fill="#6f6e69">16</text><text x="402.5" y="29" font-size="8.5" text-anchor="middle" fill="#6f6e69">17</text><text x="425.5" y="29" font-size="8.5" text-anchor="middle" fill="#6f6e69">18</text><text x="448.5" y="29" font-size="8.5" text-anchor="middle" fill="#6f6e69">19</text><text x="471.5" y="29" font-size="8.5" text-anchor="middle" fill="#6f6e69">20</text><text x="494.5" y="29" font-size="8.5" text-anchor="middle" fill="#6f6e69">21</text><text x="517.5" y="29" font-size="8.5" text-anchor="middle" fill="#6f6e69">22</text><text x="540.5" y="29" font-size="8.5" text-anchor="middle" fill="#6f6e69">23</text><text x="563.5" y="29" font-size="8.5" text-anchor="middle" fill="#6f6e69">24</text><text x="586.5" y="29" font-size="8.5" text-anchor="middle" fill="#6f6e69">25</text><text x="609.5" y="29" font-size="8.5" text-anchor="middle" fill="#6f6e69">26</text><text x="632.5" y="29" font-size="8.5" text-anchor="middle" fill="#6f6e69">27</text><text x="655.5" y="29" font-size="8.5" text-anchor="middle" fill="#6f6e69">28</text><text x="678.5" y="29" font-size="8.5" text-anchor="middle" fill="#6f6e69">29</text><text x="701.5" y="29" font-size="8.5" text-anchor="middle" fill="#6f6e69">30</text><text x="724.5" y="29" font-size="8.5" text-anchor="middle" fill="#6f6e69">31</text><rect x="0" y="34" width="92" height="30" fill="#fff" stroke="#555"/><text x="46" y="52.85" font-size="11" text-anchor="middle">Version</text><rect x="92" y="34" width="184" height="30" fill="#fff" stroke="#555"/><text x="184" y="52.85" font-size="11" text-anchor="middle">Traffic Class</text><rect x="276" y="34" width="460" height="30" fill="#fff" stroke="#555"/><text x="506" y="52.85" font-size="11" text-anchor="middle">Flow Label</text><rect x="0" y="64" width="368" height="30" fill="#fff" stroke="#555"/><text x="184" y="82.85" font-size="11" text-anchor="middle">Payload Length</text><rect x="368" y="64" width="184" height="30" fill="#fff" stroke="#555"/><text x="460" y="82.85" font-size="11" text-anchor="middle">Next Header</text><rect x="552" y="64" width="184" height="30" fill="#fff" stroke="#555"/><text x="644" y="82.85" font-size="11" text-anchor="middle">Hop Limit</text><rect x="0" y="94" width="736" height="30" fill="#dbeafe" stroke="#555"/><text x="368" y="112.85" font-size="11" text-anchor="middle">Source Address</text><rect x="0" y="124" width="736" height="30" fill="#dbeafe" stroke="#555"/><text x="368" y="142.85" font-size="11" text-anchor="middle">Source Address</text><rect x="0" y="154" width="736" height="30" fill="#dbeafe" stroke="#555"/><text x="368" y="172.85" font-size="11" text-anchor="middle">Source Address</text><rect x="0" y="184" width="736" height="30" fill="#dbeafe" stroke="#555"/><text x="368" y="202.85" font-size="11" text-anchor="middle">Source Address</text><rect x="0" y="214" width="736" height="30" fill="#dbeafe" stroke="#555"/><text x="368" y="232.85" font-size="11" text-anchor="middle">Destination Address</text><rect x="0" y="244" width="736" height="30" fill="#dbeafe" stroke="#555"/><text x="368" y="262.85" font-size="11" text-anchor="middle">Destination Address</text><rect x="0" y="274" width="736" height="30" fill="#dbeafe" stroke="#555"/><text x="368" y="292.85" font-size="11" text-anchor="middle">Destination Address</text><rect x="0" y="304" width="736" height="30" fill="#dbeafe" stroke="#555"/><text x="368" y="322.85" font-size="11" text-anchor="middle">Destination Address</text><rect x="0" y="334" width="736" height="30" fill="#fff" stroke="#555"/><text x="368" y="352.85" font-size="11" text-anchor="middle">Payload</text><title>variable length; upper-layer PDU or extension headers</title></g><metadata id="figdown-source" data-sha256="807f431fa42d5ec13ae33567fbb526922eb95d6b58c8cbc1a12a052b6e22693e"><![CDATA[
figdown 0.1 bitfield

# IPv6 Header — RFC 8200
# Each row is 32 bits, MSB-0 numbering (bit 0 at left).

bitfield ipv6 "IPv6 Header (RFC 8200)" unit=32 numbering=msb0

# Row 1: Version · Traffic Class · Flow Label
field Version 4
field "Traffic Class" 8
field "Flow Label" 20

# Row 2: Payload Length · Next Header · Hop Limit
field "Payload Length" 16
field "Next Header" 8
field "Hop Limit" 8

# Row 3–6: Source Address (128 bits = 4 rows)
field "Source Address" 128 color=#dbeafe

# Row 7–10: Destination Address (128 bits = 4 rows)
field "Destination Address" 128 color=#dbeafe

# Payload (variable length; one unit shown as representative row)
field Payload * note="variable length; upper-layer PDU or extension headers"

]]></metadata></svg>