<svg xmlns="http://www.w3.org/2000/svg" viewBox="0 0 508 524" width="508" height="524" font-family="system-ui,sans-serif"><defs><marker id="arr" viewBox="0 0 10 10" refX="9" refY="5" markerWidth="7" markerHeight="7" orient="auto-start-reverse"><path d="M0,0 L10,5 L0,10 z" fill="#555"/></marker><pattern id="hatch" width="6" height="6" patternUnits="userSpaceOnUse" patternTransform="rotate(45)"><line x1="0" y1="0" x2="0" y2="6" stroke="#bbb" stroke-width="2"/></pattern></defs><g transform="translate(18,6)"><text x="0" y="16" font-size="15" font-weight="600">Per-(port, queue) occupancy — one table, two projections</text><text x="0" y="44" font-size="13" font-weight="600">Queue occupancy counters</text><rect x="0" y="52" width="71.2" height="26" fill="#eeede6" stroke="#c9c7bf" data-cell="hm:0:1" style="cursor:pointer"/><text x="35.6" y="69.3" font-size="12" text-anchor="middle" font-weight="600">Port\Q</text><rect x="71.2" y="52" width="42.4" height="26" fill="#eeede6" stroke="#c9c7bf" data-cell="hm:0:2" style="cursor:pointer"/><text x="92.4" y="69.3" font-size="12" text-anchor="middle" font-weight="600">Q0</text><rect x="113.6" y="52" width="42.4" height="26" fill="#eeede6" stroke="#c9c7bf" data-cell="hm:0:3" style="cursor:pointer"/><text x="134.79999999999998" y="69.3" font-size="12" text-anchor="middle" font-weight="600">Q1</text><rect x="156" y="52" width="42.4" height="26" fill="#eeede6" stroke="#c9c7bf" data-cell="hm:0:4" style="cursor:pointer"/><text x="177.2" y="69.3" font-size="12" text-anchor="middle" font-weight="600">Q2</text><rect x="198.4" y="52" width="42.4" height="26" fill="#eeede6" stroke="#c9c7bf" data-cell="hm:0:5" style="cursor:pointer"/><text x="219.6" y="69.3" font-size="12" text-anchor="middle" font-weight="600">Q3</text><rect x="240.8" y="52" width="42.4" height="26" fill="#eeede6" stroke="#c9c7bf" data-cell="hm:0:6" style="cursor:pointer"/><text x="262" y="69.3" font-size="12" text-anchor="middle" font-weight="600">Q4</text><rect x="283.2" y="52" width="42.4" height="26" fill="#eeede6" stroke="#c9c7bf" data-cell="hm:0:7" style="cursor:pointer"/><text x="304.4" y="69.3" font-size="12" text-anchor="middle" font-weight="600">Q5</text><rect x="0" y="78" width="71.2" height="26" fill="#fff" stroke="#c9c7bf" data-cell="hm:1:1" style="cursor:pointer"/><text x="7" y="95.3" font-size="12" text-anchor="start">P0</text><rect x="71.2" y="78" width="42.4" height="26" fill="#fff" stroke="#c9c7bf" data-cell="hm:1:2" style="cursor:pointer"/><text x="92.4" y="95.3" font-size="12" text-anchor="middle">12</text><rect x="113.6" y="78" width="42.4" height="26" fill="#fecaca" stroke="#c9c7bf" data-cell="hm:1:3" style="cursor:pointer"/><text x="134.79999999999998" y="95.3" font-size="12" text-anchor="middle">55</text><rect x="156" y="78" width="42.4" height="26" fill="#fff" stroke="#c9c7bf" data-cell="hm:1:4" style="cursor:pointer"/><text x="177.2" y="95.3" font-size="12" text-anchor="middle">31</text><rect x="198.4" y="78" width="42.4" height="26" fill="#fff" stroke="#c9c7bf" data-cell="hm:1:5" style="cursor:pointer"/><text x="219.6" y="95.3" font-size="12" text-anchor="middle">8</text><rect x="240.8" y="78" width="42.4" height="26" fill="#fca5a5" stroke="#c9c7bf" data-cell="hm:1:6" style="cursor:pointer"/><text x="262" y="95.3" font-size="12" text-anchor="middle">72</text><rect x="283.2" y="78" width="42.4" height="26" fill="#fff" stroke="#c9c7bf" data-cell="hm:1:7" style="cursor:pointer"/><text x="304.4" y="95.3" font-size="12" text-anchor="middle">19</text><rect x="0" y="104" width="71.2" height="26" fill="#fff" stroke="#c9c7bf" data-cell="hm:2:1" style="cursor:pointer"/><text x="7" y="121.3" font-size="12" text-anchor="start">P1</text><rect x="71.2" y="104" width="42.4" height="26" fill="#fecaca" stroke="#c9c7bf" data-cell="hm:2:2" style="cursor:pointer"/><text x="92.4" y="121.3" font-size="12" text-anchor="middle">44</text><rect x="113.6" y="104" width="42.4" height="26" fill="#fca5a5" stroke="#c9c7bf" data-cell="hm:2:3" style="cursor:pointer"/><text x="134.79999999999998" y="121.3" font-size="12" text-anchor="middle">90</text><rect x="156" y="104" width="42.4" height="26" fill="#fff" stroke="#c9c7bf" data-cell="hm:2:4" style="cursor:pointer"/><text x="177.2" y="121.3" font-size="12" text-anchor="middle">22</text><rect x="198.4" y="104" width="42.4" height="26" fill="#fecaca" stroke="#c9c7bf" data-cell="hm:2:5" style="cursor:pointer"/><text x="219.6" y="121.3" font-size="12" text-anchor="middle">61</text><rect x="240.8" y="104" width="42.4" height="26" fill="#fff" stroke="#c9c7bf" data-cell="hm:2:6" style="cursor:pointer"/><text x="262" y="121.3" font-size="12" text-anchor="middle">15</text><rect x="283.2" y="104" width="42.4" height="26" fill="#fff" stroke="#c9c7bf" data-cell="hm:2:7" style="cursor:pointer"/><text x="304.4" y="121.3" font-size="12" text-anchor="middle">38</text><rect x="0" y="130" width="71.2" height="26" fill="#fff" stroke="#c9c7bf" data-cell="hm:3:1" style="cursor:pointer"/><text x="7" y="147.3" font-size="12" text-anchor="start">P2</text><rect x="71.2" y="130" width="42.4" height="26" fill="#fff" stroke="#c9c7bf" data-cell="hm:3:2" style="cursor:pointer"/><text x="92.4" y="147.3" font-size="12" text-anchor="middle">5</text><rect x="113.6" y="130" width="42.4" height="26" fill="#fff" stroke="#c9c7bf" data-cell="hm:3:3" style="cursor:pointer"/><text x="134.79999999999998" y="147.3" font-size="12" text-anchor="middle">27</text><rect x="156" y="130" width="42.4" height="26" fill="#fca5a5" stroke="#c9c7bf" data-cell="hm:3:4" style="cursor:pointer"/><text x="177.2" y="147.3" font-size="12" text-anchor="middle">83</text><rect x="198.4" y="130" width="42.4" height="26" fill="#fecaca" stroke="#c9c7bf" data-cell="hm:3:5" style="cursor:pointer"/><text x="219.6" y="147.3" font-size="12" text-anchor="middle">47</text><rect x="240.8" y="130" width="42.4" height="26" fill="#fff" stroke="#c9c7bf" data-cell="hm:3:6" style="cursor:pointer"/><text x="262" y="147.3" font-size="12" text-anchor="middle">33</text><rect x="283.2" y="130" width="42.4" height="26" fill="#fca5a5" stroke="#c9c7bf" data-cell="hm:3:7" style="cursor:pointer"/><text x="304.4" y="147.3" font-size="12" text-anchor="middle">96</text><rect x="0" y="156" width="71.2" height="26" fill="#fff" stroke="#c9c7bf" data-cell="hm:4:1" style="cursor:pointer"/><text x="7" y="173.3" font-size="12" text-anchor="start">P3</text><rect x="71.2" y="156" width="42.4" height="26" fill="#fecaca" stroke="#c9c7bf" data-cell="hm:4:2" style="cursor:pointer"/><text x="92.4" y="173.3" font-size="12" text-anchor="middle">68</text><rect x="113.6" y="156" width="42.4" height="26" fill="#fff" stroke="#c9c7bf" data-cell="hm:4:3" style="cursor:pointer"/><text x="134.79999999999998" y="173.3" font-size="12" text-anchor="middle">14</text><rect x="156" y="156" width="42.4" height="26" fill="#fff" stroke="#c9c7bf" data-cell="hm:4:4" style="cursor:pointer"/><text x="177.2" y="173.3" font-size="12" text-anchor="middle">40</text><rect x="198.4" y="156" width="42.4" height="26" fill="#fff" stroke="#c9c7bf" data-cell="hm:4:5" style="cursor:pointer"/><text x="219.6" y="173.3" font-size="12" text-anchor="middle">29</text><rect x="240.8" y="156" width="42.4" height="26" fill="#fecaca" stroke="#c9c7bf" data-cell="hm:4:6" style="cursor:pointer"/><text x="262" y="173.3" font-size="12" text-anchor="middle">51</text><rect x="283.2" y="156" width="42.4" height="26" fill="#fff" stroke="#c9c7bf" data-cell="hm:4:7" style="cursor:pointer"/><text x="304.4" y="173.3" font-size="12" text-anchor="middle">7</text><text x="0" y="226" font-size="13" font-weight="600">Queue occupancy counters — bars3d</text><polygon points="88,366 8,406 128,466 208,426" fill="#f6f5ef" stroke="#d6d4cc"/><polygon points="73.6,359.75 88,366.95 88,383.2 73.6,376" fill="#2a5eb1"/><polygon points="88,366.95 102.4,359.75 102.4,376 88,383.2" fill="#204887"/><polygon points="88,352.55 73.6,359.75 88,366.95 102.4,359.75" fill="#3b82f6"/><polygon points="93.60000000000001,311.5208333333333 108,318.7208333333333 108,393.2 93.60000000000001,386" fill="#188e44"/><polygon points="108,318.7208333333333 122.39999999999999,311.5208333333333 122.39999999999999,386 108,393.2" fill="#136c34"/><polygon points="108,304.3208333333333 93.60000000000001,311.5208333333333 108,318.7208333333333 122.39999999999999,311.5208333333333" fill="#22c55e"/><polygon points="53.60000000000001,326.4166666666667 68,333.6166666666667 68,393.2 53.60000000000001,386" fill="#2a5eb1"/><polygon points="68,333.6166666666667 82.39999999999999,326.4166666666667 82.39999999999999,386 68,393.2" fill="#204887"/><polygon points="68,319.2166666666667 53.60000000000001,326.4166666666667 68,333.6166666666667 82.39999999999999,326.4166666666667" fill="#3b82f6"/><polygon points="113.60000000000001,354.0208333333333 128,361.2208333333333 128,403.2 113.60000000000001,396" fill="#b07208"/><polygon points="128,361.2208333333333 142.39999999999998,354.0208333333333 142.39999999999998,396 128,403.2" fill="#875706"/><polygon points="128,346.8208333333333 113.60000000000001,354.0208333333333 128,361.2208333333333 142.39999999999998,354.0208333333333" fill="#f59e0b"/><polygon points="73.60000000000001,274.125 88,281.325 88,403.2 73.60000000000001,396" fill="#188e44"/><polygon points="88,281.325 102.39999999999999,274.125 102.39999999999999,396 88,403.2" fill="#136c34"/><polygon points="88,266.925 73.60000000000001,274.125 88,281.325 102.39999999999999,274.125" fill="#22c55e"/><polygon points="33.60000000000001,389.2291666666667 48,396.4291666666667 48,403.2 33.60000000000001,396" fill="#2a5eb1"/><polygon points="48,396.4291666666667 62.39999999999999,389.2291666666667 62.39999999999999,396 48,403.2" fill="#204887"/><polygon points="48,382.0291666666667 33.60000000000001,389.2291666666667 48,396.4291666666667 62.39999999999999,389.2291666666667" fill="#3b82f6"/><polygon points="133.60000000000002,395.1666666666667 148,402.3666666666667 148,413.2 133.60000000000002,406" fill="#ac3131"/><polygon points="148,402.3666666666667 162.39999999999998,395.1666666666667 162.39999999999998,406 148,413.2" fill="#832525"/><polygon points="148,387.9666666666667 133.60000000000002,395.1666666666667 148,402.3666666666667 162.39999999999998,395.1666666666667" fill="#ef4444"/><polygon points="93.60000000000001,376.2083333333333 108,383.4083333333333 108,413.2 93.60000000000001,406" fill="#b07208"/><polygon points="108,383.4083333333333 122.39999999999999,376.2083333333333 122.39999999999999,406 108,413.2" fill="#875706"/><polygon points="108,369.0083333333333 93.60000000000001,376.2083333333333 108,383.4083333333333 122.39999999999999,376.2083333333333" fill="#f59e0b"/><polygon points="53.60000000000001,369.4375 68,376.6375 68,413.2 53.60000000000001,406" fill="#188e44"/><polygon points="68,376.6375 82.39999999999999,369.4375 82.39999999999999,406 68,413.2" fill="#136c34"/><polygon points="68,362.2375 53.60000000000001,369.4375 68,376.6375 82.39999999999999,369.4375" fill="#22c55e"/><polygon points="13.600000000000009,313.91666666666663 28,321.1166666666667 28,413.2 13.600000000000009,406" fill="#2a5eb1"/><polygon points="28,321.1166666666667 42.39999999999999,313.91666666666663 42.39999999999999,406 28,413.2" fill="#204887"/><polygon points="28,306.7166666666667 13.600000000000009,313.91666666666663 28,321.1166666666667 42.39999999999999,313.91666666666663" fill="#3b82f6"/><polygon points="153.6,318.5 168,325.7 168,423.2 153.6,416" fill="#793db2"/><polygon points="168,325.7 182.4,318.5 182.4,416 168,423.2" fill="#5c2f88"/><polygon points="168,311.3 153.6,318.5 168,325.7 182.4,318.5" fill="#a855f7"/><polygon points="113.60000000000001,333.3958333333333 128,340.5958333333333 128,423.2 113.60000000000001,416" fill="#ac3131"/><polygon points="128,340.5958333333333 142.39999999999998,333.3958333333333 142.39999999999998,416 128,423.2" fill="#832525"/><polygon points="128,326.1958333333333 113.60000000000001,333.3958333333333 128,340.5958333333333 142.39999999999998,333.3958333333333" fill="#ef4444"/><polygon points="73.60000000000001,303.60416666666663 88,310.8041666666667 88,423.2 73.60000000000001,416" fill="#b07208"/><polygon points="88,310.8041666666667 102.39999999999999,303.60416666666663 102.39999999999999,416 88,423.2" fill="#875706"/><polygon points="88,296.4041666666667 73.60000000000001,303.60416666666663 88,310.8041666666667 102.39999999999999,303.60416666666663" fill="#f59e0b"/><polygon points="33.60000000000001,397.0416666666667 48,404.2416666666667 48,423.2 33.60000000000001,416" fill="#188e44"/><polygon points="48,404.2416666666667 62.39999999999999,397.0416666666667 62.39999999999999,416 48,423.2" fill="#136c34"/><polygon points="48,389.8416666666667 33.60000000000001,397.0416666666667 48,404.2416666666667 62.39999999999999,397.0416666666667" fill="#22c55e"/><polygon points="173.6,400.2708333333333 188,407.4708333333333 188,433.2 173.6,426" fill="#0e8478"/><polygon points="188,407.4708333333333 202.4,400.2708333333333 202.4,426 188,433.2" fill="#0b655b"/><polygon points="188,393.0708333333333 173.6,400.2708333333333 188,407.4708333333333 202.4,400.2708333333333" fill="#14b8a6"/><polygon points="133.6,405.6875 148,412.8875 148,433.2 133.6,426" fill="#793db2"/><polygon points="148,412.8875 162.4,405.6875 162.4,426 148,433.2" fill="#5c2f88"/><polygon points="148,398.4875 133.6,405.6875 148,412.8875 162.4,405.6875" fill="#a855f7"/><polygon points="93.60000000000001,362.3541666666667 108,369.5541666666667 108,433.2 93.60000000000001,426" fill="#ac3131"/><polygon points="108,369.5541666666667 122.39999999999999,362.3541666666667 122.39999999999999,426 108,433.2" fill="#832525"/><polygon points="108,355.1541666666667 93.60000000000001,362.3541666666667 108,369.5541666666667 122.39999999999999,362.3541666666667" fill="#ef4444"/><polygon points="53.60000000000001,371.8333333333333 68,379.0333333333333 68,433.2 53.60000000000001,426" fill="#b07208"/><polygon points="68,379.0333333333333 82.39999999999999,371.8333333333333 82.39999999999999,426 68,433.2" fill="#875706"/><polygon points="68,364.6333333333333 53.60000000000001,371.8333333333333 68,379.0333333333333 82.39999999999999,371.8333333333333" fill="#f59e0b"/><polygon points="153.6,384.5416666666667 168,391.7416666666667 168,443.2 153.6,436" fill="#0e8478"/><polygon points="168,391.7416666666667 182.4,384.5416666666667 182.4,436 168,443.2" fill="#0b655b"/><polygon points="168,377.3416666666667 153.6,384.5416666666667 168,391.7416666666667 182.4,384.5416666666667" fill="#14b8a6"/><polygon points="113.6,391.3125 128,398.5125 128,443.2 113.6,436" fill="#793db2"/><polygon points="128,398.5125 142.4,391.3125 142.4,436 128,443.2" fill="#5c2f88"/><polygon points="128,384.1125 113.6,391.3125 128,398.5125 142.4,391.3125" fill="#a855f7"/><polygon points="73.60000000000001,396.7291666666667 88,403.9291666666667 88,443.2 73.60000000000001,436" fill="#ac3131"/><polygon points="88,403.9291666666667 102.39999999999999,396.7291666666667 102.39999999999999,436 88,443.2" fill="#832525"/><polygon points="88,389.5291666666667 73.60000000000001,396.7291666666667 88,403.9291666666667 102.39999999999999,396.7291666666667" fill="#ef4444"/><polygon points="133.6,316 148,323.2 148,453.2 133.6,446" fill="#0e8478"/><polygon points="148,323.2 162.4,316 162.4,446 148,453.2" fill="#0b655b"/><polygon points="148,308.8 133.6,316 148,323.2 162.4,316" fill="#14b8a6"/><polygon points="93.6,376.9375 108,384.1375 108,453.2 93.6,446" fill="#793db2"/><polygon points="108,384.1375 122.4,376.9375 122.4,446 108,453.2" fill="#5c2f88"/><polygon points="108,369.7375 93.6,376.9375 108,384.1375 122.4,376.9375" fill="#a855f7"/><polygon points="113.6,446.5208333333333 128,453.7208333333333 128,463.2 113.6,456" fill="#0e8478"/><polygon points="128,453.7208333333333 142.4,446.5208333333333 142.4,456 128,463.2" fill="#0b655b"/><polygon points="128,439.3208333333333 113.6,446.5208333333333 128,453.7208333333333 142.4,446.5208333333333" fill="#14b8a6"/><polygon points="88,311.8333333333333 8,351.8333333333333 128,411.8333333333333 208,371.8333333333333" fill="#ef4444" opacity="0.18" stroke="#ef4444" stroke-dasharray="6 4"/><text x="216" y="375.8333333333333" font-size="11" text-anchor="start" fill="#fff" stroke="#fff" stroke-width="3" stroke-linejoin="round">level 40</text><text x="216" y="375.8333333333333" font-size="11" text-anchor="start" fill="#ef4444">level 40</text><text x="71" y="379.5" font-size="10" text-anchor="end" fill="#6f6e69">P0</text><text x="51" y="389.5" font-size="10" text-anchor="end" fill="#6f6e69">P1</text><text x="31" y="399.5" font-size="10" text-anchor="end" fill="#6f6e69">P2</text><text x="11" y="409.5" font-size="10" text-anchor="end" fill="#6f6e69">P3</text><text x="19" y="422.5" font-size="10" text-anchor="start" fill="#6f6e69">Q0</text><text x="38.99999999999999" y="432.5" font-size="10" text-anchor="start" fill="#6f6e69">Q1</text><text x="58.99999999999999" y="442.5" font-size="10" text-anchor="start" fill="#6f6e69">Q2</text><text x="79" y="452.5" font-size="10" text-anchor="start" fill="#6f6e69">Q3</text><text x="99" y="462.5" font-size="10" text-anchor="start" fill="#6f6e69">Q4</text><text x="119" y="472.5" font-size="10" text-anchor="start" fill="#6f6e69">Q5</text><line x1="222" y1="426" x2="222" y2="296" stroke="#8a8880"/><line x1="219" y1="426" x2="225" y2="426" stroke="#8a8880"/><text x="229" y="429.5" font-size="9.5" text-anchor="start" fill="#6f6e69">0</text><line x1="219" y1="361" x2="225" y2="361" stroke="#8a8880"/><text x="229" y="364.5" font-size="9.5" text-anchor="start" fill="#6f6e69">48</text><line x1="219" y1="296" x2="225" y2="296" stroke="#8a8880"/><text x="229" y="299.5" font-size="9.5" text-anchor="start" fill="#6f6e69">96</text></g><metadata id="figdown-source" data-sha256="0c97c1957112282e203357061607478b0516f84cb83c608d47b6b67c29c08900"><![CDATA[
figdown 0.1 table
title "Per-(port, queue) occupancy — one table, two projections"

table hm "Queue occupancy counters"
| Port\Q | Q0 | Q1 | Q2 | Q3 | Q4 | Q5 |
|--------|:--:|:--:|:--:|:--:|:--:|:--:|
| P0     | 12 | 55 | 31 |  8 | 72 | 19 |
| P1     | 44 | 90 | 22 | 61 | 15 | 38 |
| P2     |  5 | 27 | 83 | 47 | 33 | 96 |
| P3     | 68 | 14 | 40 | 29 | 51 |  7 |
# heatmap marks: light red = over 40, strong red = over 80
cell 1,3 color=#fecaca
cell 1,6 color=#fca5a5
cell 2,2 color=#fecaca
cell 2,3 color=#fca5a5
cell 2,5 color=#fecaca
cell 3,4 color=#fca5a5
cell 3,5 color=#fecaca
cell 3,7 color=#fca5a5
cell 4,2 color=#fecaca
cell 4,6 color=#fecaca

# the same table data, plotted on X-Y-Z axes (rows=X, columns=Y, values=Z)
plot hm level=40

]]></metadata></svg>