<svg xmlns="http://www.w3.org/2000/svg" viewBox="0 0 354 222" width="354" height="222" font-family="system-ui,sans-serif"><defs><marker id="arr" viewBox="0 0 10 10" refX="9" refY="5" markerWidth="7" markerHeight="7" orient="auto-start-reverse"><path d="M0,0 L10,5 L0,10 z" fill="#555"/></marker><pattern id="hatch" width="6" height="6" patternUnits="userSpaceOnUse" patternTransform="rotate(45)"><line x1="0" y1="0" x2="0" y2="6" stroke="#bbb" stroke-width="2"/></pattern></defs><g transform="translate(18,6)"><text x="0" y="16" font-size="15" font-weight="600" font-family="var(--sans)">Per-(port, queue) occupancy — cells over the reservation level (40) marked</text><text x="0" y="44" font-size="13" font-weight="600">Queue occupancy counters</text><rect x="0" y="52" width="71.2" height="26" fill="#eeede6" stroke="#c9c7bf" data-cell="hm:0:1" style="cursor:pointer"/><text x="35.6" y="69.3" font-size="12" text-anchor="middle" font-weight="600">Port\Q</text><rect x="71.2" y="52" width="42.4" height="26" fill="#eeede6" stroke="#c9c7bf" data-cell="hm:0:2" style="cursor:pointer"/><text x="92.4" y="69.3" font-size="12" text-anchor="middle" font-weight="600">Q0</text><rect x="113.6" y="52" width="42.4" height="26" fill="#eeede6" stroke="#c9c7bf" data-cell="hm:0:3" style="cursor:pointer"/><text x="134.79999999999998" y="69.3" font-size="12" text-anchor="middle" font-weight="600">Q1</text><rect x="156" y="52" width="42.4" height="26" fill="#eeede6" stroke="#c9c7bf" data-cell="hm:0:4" style="cursor:pointer"/><text x="177.2" y="69.3" font-size="12" text-anchor="middle" font-weight="600">Q2</text><rect x="198.4" y="52" width="42.4" height="26" fill="#eeede6" stroke="#c9c7bf" data-cell="hm:0:5" style="cursor:pointer"/><text x="219.6" y="69.3" font-size="12" text-anchor="middle" font-weight="600">Q3</text><rect x="240.8" y="52" width="42.4" height="26" fill="#eeede6" stroke="#c9c7bf" data-cell="hm:0:6" style="cursor:pointer"/><text x="262" y="69.3" font-size="12" text-anchor="middle" font-weight="600">Q4</text><rect x="283.2" y="52" width="42.4" height="26" fill="#eeede6" stroke="#c9c7bf" data-cell="hm:0:7" style="cursor:pointer"/><text x="304.4" y="69.3" font-size="12" text-anchor="middle" font-weight="600">Q5</text><rect x="0" y="78" width="71.2" height="26" fill="#fff" stroke="#c9c7bf" data-cell="hm:1:1" style="cursor:pointer"/><text x="7" y="95.3" font-size="12" text-anchor="start">P0</text><rect x="71.2" y="78" width="42.4" height="26" fill="#fff" stroke="#c9c7bf" data-cell="hm:1:2" style="cursor:pointer"/><text x="92.4" y="95.3" font-size="12" text-anchor="middle">12</text><rect x="113.6" y="78" width="42.4" height="26" fill="#fecaca" stroke="#c9c7bf" data-cell="hm:1:3" style="cursor:pointer"/><text x="134.79999999999998" y="95.3" font-size="12" text-anchor="middle">55</text><rect x="156" y="78" width="42.4" height="26" fill="#fff" stroke="#c9c7bf" data-cell="hm:1:4" style="cursor:pointer"/><text x="177.2" y="95.3" font-size="12" text-anchor="middle">31</text><rect x="198.4" y="78" width="42.4" height="26" fill="#fff" stroke="#c9c7bf" data-cell="hm:1:5" style="cursor:pointer"/><text x="219.6" y="95.3" font-size="12" text-anchor="middle">8</text><rect x="240.8" y="78" width="42.4" height="26" fill="#fca5a5" stroke="#c9c7bf" data-cell="hm:1:6" style="cursor:pointer"/><text x="262" y="95.3" font-size="12" text-anchor="middle">72</text><rect x="283.2" y="78" width="42.4" height="26" fill="#fff" stroke="#c9c7bf" data-cell="hm:1:7" style="cursor:pointer"/><text x="304.4" y="95.3" font-size="12" text-anchor="middle">19</text><rect x="0" y="104" width="71.2" height="26" fill="#fff" stroke="#c9c7bf" data-cell="hm:2:1" style="cursor:pointer"/><text x="7" y="121.3" font-size="12" text-anchor="start">P1</text><rect x="71.2" y="104" width="42.4" height="26" fill="#fecaca" stroke="#c9c7bf" data-cell="hm:2:2" style="cursor:pointer"/><text x="92.4" y="121.3" font-size="12" text-anchor="middle">44</text><rect x="113.6" y="104" width="42.4" height="26" fill="#fca5a5" stroke="#c9c7bf" data-cell="hm:2:3" style="cursor:pointer"/><text x="134.79999999999998" y="121.3" font-size="12" text-anchor="middle">90</text><rect x="156" y="104" width="42.4" height="26" fill="#fff" stroke="#c9c7bf" data-cell="hm:2:4" style="cursor:pointer"/><text x="177.2" y="121.3" font-size="12" text-anchor="middle">22</text><rect x="198.4" y="104" width="42.4" height="26" fill="#fecaca" stroke="#c9c7bf" data-cell="hm:2:5" style="cursor:pointer"/><text x="219.6" y="121.3" font-size="12" text-anchor="middle">61</text><rect x="240.8" y="104" width="42.4" height="26" fill="#fff" stroke="#c9c7bf" data-cell="hm:2:6" style="cursor:pointer"/><text x="262" y="121.3" font-size="12" text-anchor="middle">15</text><rect x="283.2" y="104" width="42.4" height="26" fill="#fff" stroke="#c9c7bf" data-cell="hm:2:7" style="cursor:pointer"/><text x="304.4" y="121.3" font-size="12" text-anchor="middle">38</text><rect x="0" y="130" width="71.2" height="26" fill="#fff" stroke="#c9c7bf" data-cell="hm:3:1" style="cursor:pointer"/><text x="7" y="147.3" font-size="12" text-anchor="start">P2</text><rect x="71.2" y="130" width="42.4" height="26" fill="#fff" stroke="#c9c7bf" data-cell="hm:3:2" style="cursor:pointer"/><text x="92.4" y="147.3" font-size="12" text-anchor="middle">5</text><rect x="113.6" y="130" width="42.4" height="26" fill="#fff" stroke="#c9c7bf" data-cell="hm:3:3" style="cursor:pointer"/><text x="134.79999999999998" y="147.3" font-size="12" text-anchor="middle">27</text><rect x="156" y="130" width="42.4" height="26" fill="#fca5a5" stroke="#c9c7bf" data-cell="hm:3:4" style="cursor:pointer"/><text x="177.2" y="147.3" font-size="12" text-anchor="middle">83</text><rect x="198.4" y="130" width="42.4" height="26" fill="#fecaca" stroke="#c9c7bf" data-cell="hm:3:5" style="cursor:pointer"/><text x="219.6" y="147.3" font-size="12" text-anchor="middle">47</text><rect x="240.8" y="130" width="42.4" height="26" fill="#fff" stroke="#c9c7bf" data-cell="hm:3:6" style="cursor:pointer"/><text x="262" y="147.3" font-size="12" text-anchor="middle">33</text><rect x="283.2" y="130" width="42.4" height="26" fill="#fca5a5" stroke="#c9c7bf" data-cell="hm:3:7" style="cursor:pointer"/><text x="304.4" y="147.3" font-size="12" text-anchor="middle">96</text><rect x="0" y="156" width="71.2" height="26" fill="#fff" stroke="#c9c7bf" data-cell="hm:4:1" style="cursor:pointer"/><text x="7" y="173.3" font-size="12" text-anchor="start">P3</text><rect x="71.2" y="156" width="42.4" height="26" fill="#fecaca" stroke="#c9c7bf" data-cell="hm:4:2" style="cursor:pointer"/><text x="92.4" y="173.3" font-size="12" text-anchor="middle">68</text><rect x="113.6" y="156" width="42.4" height="26" fill="#fff" stroke="#c9c7bf" data-cell="hm:4:3" style="cursor:pointer"/><text x="134.79999999999998" y="173.3" font-size="12" text-anchor="middle">14</text><rect x="156" y="156" width="42.4" height="26" fill="#fff" stroke="#c9c7bf" data-cell="hm:4:4" style="cursor:pointer"/><text x="177.2" y="173.3" font-size="12" text-anchor="middle">40</text><rect x="198.4" y="156" width="42.4" height="26" fill="#fff" stroke="#c9c7bf" data-cell="hm:4:5" style="cursor:pointer"/><text x="219.6" y="173.3" font-size="12" text-anchor="middle">29</text><rect x="240.8" y="156" width="42.4" height="26" fill="#fecaca" stroke="#c9c7bf" data-cell="hm:4:6" style="cursor:pointer"/><text x="262" y="173.3" font-size="12" text-anchor="middle">51</text><rect x="283.2" y="156" width="42.4" height="26" fill="#fff" stroke="#c9c7bf" data-cell="hm:4:7" style="cursor:pointer"/><text x="304.4" y="173.3" font-size="12" text-anchor="middle">7</text></g><metadata id="figdown-source" data-sha256="e0d72e635a74548859c6c540520980af43ab036749fd22d2babf2866a0627f5f"><![CDATA[
figdown 0.1 table
title "Per-(port, queue) occupancy — cells over the reservation level (40) marked"

table hm "Queue occupancy counters"
| Port\Q | Q0 | Q1 | Q2 | Q3 | Q4 | Q5 |
|--------|:--:|:--:|:--:|:--:|:--:|:--:|
| P0     | 12 | 55 | 31 |  8 | 72 | 19 |
| P1     | 44 | 90 | 22 | 61 | 15 | 38 |
| P2     |  5 | 27 | 83 | 47 | 33 | 96 |
| P3     | 68 | 14 | 40 | 29 | 51 |  7 |
# heatmap marks: light red = over 40, strong red = over 80
cell 1,3 color=#fecaca
cell 1,6 color=#fca5a5
cell 2,2 color=#fecaca
cell 2,3 color=#fca5a5
cell 2,5 color=#fecaca
cell 3,4 color=#fca5a5
cell 3,5 color=#fecaca
cell 3,7 color=#fca5a5
cell 4,2 color=#fecaca
cell 4,6 color=#fecaca

]]></metadata></svg>