<svg xmlns="http://www.w3.org/2000/svg" viewBox="0 0 354 494" width="354" height="494" font-family="system-ui,sans-serif"><defs><marker id="arr" viewBox="0 0 10 10" refX="9" refY="5" markerWidth="7" markerHeight="7" orient="auto-start-reverse"><path d="M0,0 L10,5 L0,10 z" fill="#555"/></marker><pattern id="hatch" width="6" height="6" patternUnits="userSpaceOnUse" patternTransform="rotate(45)"><line x1="0" y1="0" x2="0" y2="6" stroke="#bbb" stroke-width="2"/></pattern></defs><g transform="translate(18,6)"><text x="0" y="14" font-size="13" font-weight="600">Queue occupancy counters</text><rect x="0" y="22" width="71.2" height="26" fill="#eeede6" stroke="#c9c7bf" data-cell="hm:0:1" style="cursor:pointer"/><text x="35.6" y="39.3" font-size="12" text-anchor="middle" font-weight="600">Port\Q</text><rect x="71.2" y="22" width="42.4" height="26" fill="#eeede6" stroke="#c9c7bf" data-cell="hm:0:2" style="cursor:pointer"/><text x="92.4" y="39.3" font-size="12" text-anchor="middle" font-weight="600">Q0</text><rect x="113.6" y="22" width="42.4" height="26" fill="#eeede6" stroke="#c9c7bf" data-cell="hm:0:3" style="cursor:pointer"/><text x="134.79999999999998" y="39.3" font-size="12" text-anchor="middle" font-weight="600">Q1</text><rect x="156" y="22" width="42.4" height="26" fill="#eeede6" stroke="#c9c7bf" data-cell="hm:0:4" style="cursor:pointer"/><text x="177.2" y="39.3" font-size="12" text-anchor="middle" font-weight="600">Q2</text><rect x="198.4" y="22" width="42.4" height="26" fill="#eeede6" stroke="#c9c7bf" data-cell="hm:0:5" style="cursor:pointer"/><text x="219.6" y="39.3" font-size="12" text-anchor="middle" font-weight="600">Q3</text><rect x="240.8" y="22" width="42.4" height="26" fill="#eeede6" stroke="#c9c7bf" data-cell="hm:0:6" style="cursor:pointer"/><text x="262" y="39.3" font-size="12" text-anchor="middle" font-weight="600">Q4</text><rect x="283.2" y="22" width="42.4" height="26" fill="#eeede6" stroke="#c9c7bf" data-cell="hm:0:7" style="cursor:pointer"/><text x="304.4" y="39.3" font-size="12" text-anchor="middle" font-weight="600">Q5</text><rect x="0" y="48" width="71.2" height="26" fill="#fff" stroke="#c9c7bf" data-cell="hm:1:1" style="cursor:pointer"/><text x="7" y="65.3" font-size="12" text-anchor="start">P0</text><rect x="71.2" y="48" width="42.4" height="26" fill="#fff" stroke="#c9c7bf" data-cell="hm:1:2" style="cursor:pointer"/><text x="92.4" y="65.3" font-size="12" text-anchor="middle">12</text><rect x="113.6" y="48" width="42.4" height="26" fill="#fecaca" stroke="#c9c7bf" data-cell="hm:1:3" style="cursor:pointer"/><text x="134.79999999999998" y="65.3" font-size="12" text-anchor="middle">55</text><rect x="156" y="48" width="42.4" height="26" fill="#fff" stroke="#c9c7bf" data-cell="hm:1:4" style="cursor:pointer"/><text x="177.2" y="65.3" font-size="12" text-anchor="middle">31</text><rect x="198.4" y="48" width="42.4" height="26" fill="#fff" stroke="#c9c7bf" data-cell="hm:1:5" style="cursor:pointer"/><text x="219.6" y="65.3" font-size="12" text-anchor="middle">8</text><rect x="240.8" y="48" width="42.4" height="26" fill="#fca5a5" stroke="#c9c7bf" data-cell="hm:1:6" style="cursor:pointer"/><text x="262" y="65.3" font-size="12" text-anchor="middle">72</text><rect x="283.2" y="48" width="42.4" height="26" fill="#fff" stroke="#c9c7bf" data-cell="hm:1:7" style="cursor:pointer"/><text x="304.4" y="65.3" font-size="12" text-anchor="middle">19</text><rect x="0" y="74" width="71.2" height="26" fill="#fff" stroke="#c9c7bf" data-cell="hm:2:1" style="cursor:pointer"/><text x="7" y="91.3" font-size="12" text-anchor="start">P1</text><rect x="71.2" y="74" width="42.4" height="26" fill="#fecaca" stroke="#c9c7bf" data-cell="hm:2:2" style="cursor:pointer"/><text x="92.4" y="91.3" font-size="12" text-anchor="middle">44</text><rect x="113.6" y="74" width="42.4" height="26" fill="#fca5a5" stroke="#c9c7bf" data-cell="hm:2:3" style="cursor:pointer"/><text x="134.79999999999998" y="91.3" font-size="12" text-anchor="middle">90</text><rect x="156" y="74" width="42.4" height="26" fill="#fff" stroke="#c9c7bf" data-cell="hm:2:4" style="cursor:pointer"/><text x="177.2" y="91.3" font-size="12" text-anchor="middle">22</text><rect x="198.4" y="74" width="42.4" height="26" fill="#fecaca" stroke="#c9c7bf" data-cell="hm:2:5" style="cursor:pointer"/><text x="219.6" y="91.3" font-size="12" text-anchor="middle">61</text><rect x="240.8" y="74" width="42.4" height="26" fill="#fff" stroke="#c9c7bf" data-cell="hm:2:6" style="cursor:pointer"/><text x="262" y="91.3" font-size="12" text-anchor="middle">15</text><rect x="283.2" y="74" width="42.4" height="26" fill="#fff" stroke="#c9c7bf" data-cell="hm:2:7" style="cursor:pointer"/><text x="304.4" y="91.3" font-size="12" text-anchor="middle">38</text><rect x="0" y="100" width="71.2" height="26" fill="#fff" stroke="#c9c7bf" data-cell="hm:3:1" style="cursor:pointer"/><text x="7" y="117.3" font-size="12" text-anchor="start">P2</text><rect x="71.2" y="100" width="42.4" height="26" fill="#fff" stroke="#c9c7bf" data-cell="hm:3:2" style="cursor:pointer"/><text x="92.4" y="117.3" font-size="12" text-anchor="middle">5</text><rect x="113.6" y="100" width="42.4" height="26" fill="#fff" stroke="#c9c7bf" data-cell="hm:3:3" style="cursor:pointer"/><text x="134.79999999999998" y="117.3" font-size="12" text-anchor="middle">27</text><rect x="156" y="100" width="42.4" height="26" fill="#fca5a5" stroke="#c9c7bf" data-cell="hm:3:4" style="cursor:pointer"/><text x="177.2" y="117.3" font-size="12" text-anchor="middle">83</text><rect x="198.4" y="100" width="42.4" height="26" fill="#fecaca" stroke="#c9c7bf" data-cell="hm:3:5" style="cursor:pointer"/><text x="219.6" y="117.3" font-size="12" text-anchor="middle">47</text><rect x="240.8" y="100" width="42.4" height="26" fill="#fff" stroke="#c9c7bf" data-cell="hm:3:6" style="cursor:pointer"/><text x="262" y="117.3" font-size="12" text-anchor="middle">33</text><rect x="283.2" y="100" width="42.4" height="26" fill="#fca5a5" stroke="#c9c7bf" data-cell="hm:3:7" style="cursor:pointer"/><text x="304.4" y="117.3" font-size="12" text-anchor="middle">96</text><rect x="0" y="126" width="71.2" height="26" fill="#fff" stroke="#c9c7bf" data-cell="hm:4:1" style="cursor:pointer"/><text x="7" y="143.3" font-size="12" text-anchor="start">P3</text><rect x="71.2" y="126" width="42.4" height="26" fill="#fecaca" stroke="#c9c7bf" data-cell="hm:4:2" style="cursor:pointer"/><text x="92.4" y="143.3" font-size="12" text-anchor="middle">68</text><rect x="113.6" y="126" width="42.4" height="26" fill="#fff" stroke="#c9c7bf" data-cell="hm:4:3" style="cursor:pointer"/><text x="134.79999999999998" y="143.3" font-size="12" text-anchor="middle">14</text><rect x="156" y="126" width="42.4" height="26" fill="#fff" stroke="#c9c7bf" data-cell="hm:4:4" style="cursor:pointer"/><text x="177.2" y="143.3" font-size="12" text-anchor="middle">40</text><rect x="198.4" y="126" width="42.4" height="26" fill="#fff" stroke="#c9c7bf" data-cell="hm:4:5" style="cursor:pointer"/><text x="219.6" y="143.3" font-size="12" text-anchor="middle">29</text><rect x="240.8" y="126" width="42.4" height="26" fill="#fecaca" stroke="#c9c7bf" data-cell="hm:4:6" style="cursor:pointer"/><text x="262" y="143.3" font-size="12" text-anchor="middle">51</text><rect x="283.2" y="126" width="42.4" height="26" fill="#fff" stroke="#c9c7bf" data-cell="hm:4:7" style="cursor:pointer"/><text x="304.4" y="143.3" font-size="12" text-anchor="middle">7</text><text x="0" y="196" font-size="13" font-weight="600">Queue occupancy counters — bars3d</text><polygon points="88,336 8,376 128,436 208,396" fill="#f6f5ef" stroke="#d6d4cc"/><polygon points="73.6,329.75 88,336.95 88,353.2 73.6,346" fill="#2a5eb1"/><polygon points="88,336.95 102.4,329.75 102.4,346 88,353.2" fill="#204887"/><polygon points="88,322.55 73.6,329.75 88,336.95 102.4,329.75" fill="#3b82f6"/><polygon points="93.60000000000001,281.5208333333333 108,288.7208333333333 108,363.2 93.60000000000001,356" fill="#188e44"/><polygon points="108,288.7208333333333 122.39999999999999,281.5208333333333 122.39999999999999,356 108,363.2" fill="#136c34"/><polygon points="108,274.3208333333333 93.60000000000001,281.5208333333333 108,288.7208333333333 122.39999999999999,281.5208333333333" fill="#22c55e"/><polygon points="53.60000000000001,296.4166666666667 68,303.6166666666667 68,363.2 53.60000000000001,356" fill="#2a5eb1"/><polygon points="68,303.6166666666667 82.39999999999999,296.4166666666667 82.39999999999999,356 68,363.2" fill="#204887"/><polygon points="68,289.2166666666667 53.60000000000001,296.4166666666667 68,303.6166666666667 82.39999999999999,296.4166666666667" fill="#3b82f6"/><polygon points="113.60000000000001,324.0208333333333 128,331.2208333333333 128,373.2 113.60000000000001,366" fill="#b07208"/><polygon points="128,331.2208333333333 142.39999999999998,324.0208333333333 142.39999999999998,366 128,373.2" fill="#875706"/><polygon points="128,316.8208333333333 113.60000000000001,324.0208333333333 128,331.2208333333333 142.39999999999998,324.0208333333333" fill="#f59e0b"/><polygon points="73.60000000000001,244.125 88,251.325 88,373.2 73.60000000000001,366" fill="#188e44"/><polygon points="88,251.325 102.39999999999999,244.125 102.39999999999999,366 88,373.2" fill="#136c34"/><polygon points="88,236.925 73.60000000000001,244.125 88,251.325 102.39999999999999,244.125" fill="#22c55e"/><polygon points="33.60000000000001,359.2291666666667 48,366.4291666666667 48,373.2 33.60000000000001,366" fill="#2a5eb1"/><polygon points="48,366.4291666666667 62.39999999999999,359.2291666666667 62.39999999999999,366 48,373.2" fill="#204887"/><polygon points="48,352.0291666666667 33.60000000000001,359.2291666666667 48,366.4291666666667 62.39999999999999,359.2291666666667" fill="#3b82f6"/><polygon points="133.60000000000002,365.1666666666667 148,372.3666666666667 148,383.2 133.60000000000002,376" fill="#ac3131"/><polygon points="148,372.3666666666667 162.39999999999998,365.1666666666667 162.39999999999998,376 148,383.2" fill="#832525"/><polygon points="148,357.9666666666667 133.60000000000002,365.1666666666667 148,372.3666666666667 162.39999999999998,365.1666666666667" fill="#ef4444"/><polygon points="93.60000000000001,346.2083333333333 108,353.4083333333333 108,383.2 93.60000000000001,376" fill="#b07208"/><polygon points="108,353.4083333333333 122.39999999999999,346.2083333333333 122.39999999999999,376 108,383.2" fill="#875706"/><polygon points="108,339.0083333333333 93.60000000000001,346.2083333333333 108,353.4083333333333 122.39999999999999,346.2083333333333" fill="#f59e0b"/><polygon points="53.60000000000001,339.4375 68,346.6375 68,383.2 53.60000000000001,376" fill="#188e44"/><polygon points="68,346.6375 82.39999999999999,339.4375 82.39999999999999,376 68,383.2" fill="#136c34"/><polygon points="68,332.2375 53.60000000000001,339.4375 68,346.6375 82.39999999999999,339.4375" fill="#22c55e"/><polygon points="13.600000000000009,283.91666666666663 28,291.1166666666667 28,383.2 13.600000000000009,376" fill="#2a5eb1"/><polygon points="28,291.1166666666667 42.39999999999999,283.91666666666663 42.39999999999999,376 28,383.2" fill="#204887"/><polygon points="28,276.7166666666667 13.600000000000009,283.91666666666663 28,291.1166666666667 42.39999999999999,283.91666666666663" fill="#3b82f6"/><polygon points="153.6,288.5 168,295.7 168,393.2 153.6,386" fill="#793db2"/><polygon points="168,295.7 182.4,288.5 182.4,386 168,393.2" fill="#5c2f88"/><polygon points="168,281.3 153.6,288.5 168,295.7 182.4,288.5" fill="#a855f7"/><polygon points="113.60000000000001,303.3958333333333 128,310.5958333333333 128,393.2 113.60000000000001,386" fill="#ac3131"/><polygon points="128,310.5958333333333 142.39999999999998,303.3958333333333 142.39999999999998,386 128,393.2" fill="#832525"/><polygon points="128,296.1958333333333 113.60000000000001,303.3958333333333 128,310.5958333333333 142.39999999999998,303.3958333333333" fill="#ef4444"/><polygon points="73.60000000000001,273.60416666666663 88,280.8041666666667 88,393.2 73.60000000000001,386" fill="#b07208"/><polygon points="88,280.8041666666667 102.39999999999999,273.60416666666663 102.39999999999999,386 88,393.2" fill="#875706"/><polygon points="88,266.4041666666667 73.60000000000001,273.60416666666663 88,280.8041666666667 102.39999999999999,273.60416666666663" fill="#f59e0b"/><polygon points="33.60000000000001,367.0416666666667 48,374.2416666666667 48,393.2 33.60000000000001,386" fill="#188e44"/><polygon points="48,374.2416666666667 62.39999999999999,367.0416666666667 62.39999999999999,386 48,393.2" fill="#136c34"/><polygon points="48,359.8416666666667 33.60000000000001,367.0416666666667 48,374.2416666666667 62.39999999999999,367.0416666666667" fill="#22c55e"/><polygon points="173.6,370.2708333333333 188,377.4708333333333 188,403.2 173.6,396" fill="#0e8478"/><polygon points="188,377.4708333333333 202.4,370.2708333333333 202.4,396 188,403.2" fill="#0b655b"/><polygon points="188,363.0708333333333 173.6,370.2708333333333 188,377.4708333333333 202.4,370.2708333333333" fill="#14b8a6"/><polygon points="133.6,375.6875 148,382.8875 148,403.2 133.6,396" fill="#793db2"/><polygon points="148,382.8875 162.4,375.6875 162.4,396 148,403.2" fill="#5c2f88"/><polygon points="148,368.4875 133.6,375.6875 148,382.8875 162.4,375.6875" fill="#a855f7"/><polygon points="93.60000000000001,332.3541666666667 108,339.5541666666667 108,403.2 93.60000000000001,396" fill="#ac3131"/><polygon points="108,339.5541666666667 122.39999999999999,332.3541666666667 122.39999999999999,396 108,403.2" fill="#832525"/><polygon points="108,325.1541666666667 93.60000000000001,332.3541666666667 108,339.5541666666667 122.39999999999999,332.3541666666667" fill="#ef4444"/><polygon points="53.60000000000001,341.8333333333333 68,349.0333333333333 68,403.2 53.60000000000001,396" fill="#b07208"/><polygon points="68,349.0333333333333 82.39999999999999,341.8333333333333 82.39999999999999,396 68,403.2" fill="#875706"/><polygon points="68,334.6333333333333 53.60000000000001,341.8333333333333 68,349.0333333333333 82.39999999999999,341.8333333333333" fill="#f59e0b"/><polygon points="153.6,354.5416666666667 168,361.7416666666667 168,413.2 153.6,406" fill="#0e8478"/><polygon points="168,361.7416666666667 182.4,354.5416666666667 182.4,406 168,413.2" fill="#0b655b"/><polygon points="168,347.3416666666667 153.6,354.5416666666667 168,361.7416666666667 182.4,354.5416666666667" fill="#14b8a6"/><polygon points="113.6,361.3125 128,368.5125 128,413.2 113.6,406" fill="#793db2"/><polygon points="128,368.5125 142.4,361.3125 142.4,406 128,413.2" fill="#5c2f88"/><polygon points="128,354.1125 113.6,361.3125 128,368.5125 142.4,361.3125" fill="#a855f7"/><polygon points="73.60000000000001,366.7291666666667 88,373.9291666666667 88,413.2 73.60000000000001,406" fill="#ac3131"/><polygon points="88,373.9291666666667 102.39999999999999,366.7291666666667 102.39999999999999,406 88,413.2" fill="#832525"/><polygon points="88,359.5291666666667 73.60000000000001,366.7291666666667 88,373.9291666666667 102.39999999999999,366.7291666666667" fill="#ef4444"/><polygon points="133.6,286 148,293.2 148,423.2 133.6,416" fill="#0e8478"/><polygon points="148,293.2 162.4,286 162.4,416 148,423.2" fill="#0b655b"/><polygon points="148,278.8 133.6,286 148,293.2 162.4,286" fill="#14b8a6"/><polygon points="93.6,346.9375 108,354.1375 108,423.2 93.6,416" fill="#793db2"/><polygon points="108,354.1375 122.4,346.9375 122.4,416 108,423.2" fill="#5c2f88"/><polygon points="108,339.7375 93.6,346.9375 108,354.1375 122.4,346.9375" fill="#a855f7"/><polygon points="113.6,416.5208333333333 128,423.7208333333333 128,433.2 113.6,426" fill="#0e8478"/><polygon points="128,423.7208333333333 142.4,416.5208333333333 142.4,426 128,433.2" fill="#0b655b"/><polygon points="128,409.3208333333333 113.6,416.5208333333333 128,423.7208333333333 142.4,416.5208333333333" fill="#14b8a6"/><polygon points="88,281.8333333333333 8,321.8333333333333 128,381.8333333333333 208,341.8333333333333" fill="#ef4444" opacity="0.18" stroke="#ef4444" stroke-dasharray="6 4"/><text x="216" y="345.8333333333333" font-size="11" text-anchor="start" fill="#fff" stroke="#fff" stroke-width="3" stroke-linejoin="round">level 40</text><text x="216" y="345.8333333333333" font-size="11" text-anchor="start" fill="#ef4444">level 40</text><text x="71" y="349.5" font-size="10" text-anchor="end" fill="#6f6e69">P0</text><text x="51" y="359.5" font-size="10" text-anchor="end" fill="#6f6e69">P1</text><text x="31" y="369.5" font-size="10" text-anchor="end" fill="#6f6e69">P2</text><text x="11" y="379.5" font-size="10" text-anchor="end" fill="#6f6e69">P3</text><text x="19" y="392.5" font-size="10" text-anchor="start" fill="#6f6e69">Q0</text><text x="38.99999999999999" y="402.5" font-size="10" text-anchor="start" fill="#6f6e69">Q1</text><text x="58.99999999999999" y="412.5" font-size="10" text-anchor="start" fill="#6f6e69">Q2</text><text x="79" y="422.5" font-size="10" text-anchor="start" fill="#6f6e69">Q3</text><text x="99" y="432.5" font-size="10" text-anchor="start" fill="#6f6e69">Q4</text><text x="119" y="442.5" font-size="10" text-anchor="start" fill="#6f6e69">Q5</text><line x1="222" y1="396" x2="222" y2="266" stroke="#8a8880"/><line x1="219" y1="396" x2="225" y2="396" stroke="#8a8880"/><text x="229" y="399.5" font-size="9.5" text-anchor="start" fill="#6f6e69">0</text><line x1="219" y1="331" x2="225" y2="331" stroke="#8a8880"/><text x="229" y="334.5" font-size="9.5" text-anchor="start" fill="#6f6e69">48</text><line x1="219" y1="266" x2="225" y2="266" stroke="#8a8880"/><text x="229" y="269.5" font-size="9.5" text-anchor="start" fill="#6f6e69">96</text></g><metadata id="figdown-source" data-sha256="0c97c1957112282e203357061607478b0516f84cb83c608d47b6b67c29c08900"><![CDATA[
figdown 0.1 table
title "Per-(port, queue) occupancy — one table, two projections"

table hm "Queue occupancy counters"
| Port\Q | Q0 | Q1 | Q2 | Q3 | Q4 | Q5 |
|--------|:--:|:--:|:--:|:--:|:--:|:--:|
| P0     | 12 | 55 | 31 |  8 | 72 | 19 |
| P1     | 44 | 90 | 22 | 61 | 15 | 38 |
| P2     |  5 | 27 | 83 | 47 | 33 | 96 |
| P3     | 68 | 14 | 40 | 29 | 51 |  7 |
# heatmap marks: light red = over 40, strong red = over 80
cell 1,3 color=#fecaca
cell 1,6 color=#fca5a5
cell 2,2 color=#fecaca
cell 2,3 color=#fca5a5
cell 2,5 color=#fecaca
cell 3,4 color=#fca5a5
cell 3,5 color=#fecaca
cell 3,7 color=#fca5a5
cell 4,2 color=#fecaca
cell 4,6 color=#fecaca

# the same table data, plotted on X-Y-Z axes (rows=X, columns=Y, values=Z)
plot hm level=40

]]></metadata></svg>